<svg xmlns="http://www.w3.org/2000/svg" id="Layer_1" viewBox="0 0 500 500" preserveAspectRatio="xMinYMin meet">
  <style>
    .st0{fill:#FFFFFF;}
  </style>
  <path d="M323.5 287c-2.1-6.8-14.3-13-20.8-12.4-4.6.4-14.1 4.3-15.9-2.7-1.4-5.3.2-9.4 3.8-13.4 4.3-4.8 12.2-7.1 17.6-10.9 9.6-6.9 12.4-23.9 4.8-32.6-1.1-1.3-2.4-3.8-3.9-4.6-2.9-1.4-9.2-.1-12.2.6-11.8 3-18.8 12.9-23.7 23.3-1.9 4.1-4.9 14.5-1.3 18.6 2.3 2.6 5.2 1.9 6.5-.9 2.1-4.4-.1-8.7.9-13.4.2-1 .8-5.4 2.1-5.4 4.7 0-1 9.2 1.1 9.9 2.4.8.7-5.3 2.7-5.6 4.2-.8-.3 7.9.7 9 1.7 1.9 2-5.9 3.4-4.9 1.9 1.4-1.2 4.7-.2 6.2s1.8-1.6 1.9-2.1c.4-1.6 1.4-9.8 3.7-7.5 2.8 2.9-1.7 5.9-.2 8.5 1.6 2.8 2.3-8.2 4.8-3.6 1.1 1.9-.4 6.1-1.9 7.3-4.3 3.7-12.1 5-15 10.3-1.1 2-.7 8.6-1.7 9.5-.7.6-4.2-2.8-4-.4.1 1.7 3.4 2.9 4.6 3.9 5.2 4.2 10.9 4.8 15.6 9 1.1 1.1 4.7 3.2 4.7 4.8 0 2.3-2.3.7-3 0-.9-.8-1.8-1.5-2.7-2.3-.6-.5-1.1-1.2-1.7-1.8-1.8-1.6-4.4-2-2.2.9 1.8 2.4 4.7 4 6.4 6.4.5.7.3 1.6-.4 2-2.9 1.4-8.7-10.2-11.2-8.2-1.2.9.9 2.5 1.5 3 1.1 1 8.8 6.9 7.3 8.4-1.4 1.4-7.3-5.8-8.4-6.9-.5-.5-2.1-2.2-3-1.3-1.7 1.7 6.7 7.7 7.8 8.9.5.7 2.1 2.9.4 3.4-2.1.5-4.8-3.9-6.4-4.7-10-5.1-22.6-8.3-27.2-19.6-1.9-4.5-3.8-8.9-5.6-13.4-.4-1.1-.9-4.5-2.2-4.7-2.4-.4-4.4 6.2-5 8-3.1 8.8-3.1 20-8.2 27.9-1.4 2.1-6.6 2.3-8.9 3.3-8.2 3.7-17.4 5.4-25.8 8.7-2.5 1-7.6 4.1-10.2 3.9-1.2-.1-2.7-2.5-3.8-3.2-3.8-2.7-8.6-3.9-12.4-6.4-3.4-2.3.5-2.9-.4-4.4-.6-1.1-4 3-4.7.3-.4-1.5 2.5-2.3 2-3.7-.3-.7-5.8 3.8-6.7 0-.3-1.2 5.7-4.4 5.1-5.1-1.6-2-5.6 6-8.2 2.9-2.2-2.6 4.7-6.2 6.4-7.3.2-.2 3-1.6 2.4-2-3-1.7-11.4 9.1-12.9 5.6-.9-2.3 8.3-8 9.9-9.3.4-.3 3.9-2.4 3.5-2.8-1-.8-3.2.8-4 1.3-2.2 1.3-8.9 8.8-11.3 7.8-5.1-2.1 5.9-8 7.3-9 .3-.3 2.8-1.8 2.5-2.2-.5-.7-2.9 1-3.4 1.3-2 1-8.7 7.3-10.5 4.8-3-4 8.9-8.4 11.6-9.7.5-.2 4.5-2.3 4.5-2.4-.7-.9-4.2.4-5 .8-2.5 1.2-10.3 7.6-12.9 6.7-3.6-1.2-2.1-5.4 0-6.8.2-.1 2-1.2 1.3-1.6-1.6-.9-3.2 2.9-5 1.7-2-1.4-1.7-4.9-2.3-6.8-1.1-3.6-6.2-7.6-6.2-11.4 0-1.7 6.7 3.4 4.9 0-1.7-3.4-15.1-7-12.5-12.7.5-1 3 1.5 3.6 1.8 1.4.9 9.7 7.2 11 5.8 1.2-1.2-1.7-3-2.4-3.4-4.1-2.2-8.9-3.8-12.4-7.2-.4-.4-2.9-4.6-1.4-4.7 2.3-.3 7.9 4.8 10 6 .8.4 3.2 2.1 4 1.3 1.1-1.1-1.8-2.9-2.4-3.3-3.4-2.2-7.3-3.3-10.7-5.7-.7-.5-3.2-2.3-2.1-3.4.5-.6 3.2 1.4 3.8 1.7 3.7 2 7.4 4.4 10.8 6.9.4.4 3 1.7 3 .3 0-1.5-2.5-2.3-3.6-2.9-3.9-2.1-7.8-4.4-11.3-7.1-.6-.5-4.4-2.6-3.5-3.8.7-.8 4.4 2 5.1 2.4 4.5 2.8 9 5.6 13.4 8.5.7.4 4.7 3 4.7.7 0-1.6-4.1-2.1-5.2-2.9-5.2-3.4-10.5-6.8-15.6-10.4-1.2-.8-4.5-2.3-3.9-4.3.2-.7 5.4 2.9 6 3.2 5 3 10 6.1 15 9.1.8.5 4.2 2.9 5.1 1.7 1-1.2-5.8-4-6.7-4.6-6-3.6-12.1-7-17.7-11.2-1.4-1-4.8-3.7-3-5.9 1.1-1.3 4 1.5 5.1 2 5.4 2.9 10.4 6.1 15.6 9.6.8.5 5.9 4.6 6.4 2.8.5-1.9-4.6-3.6-5.8-4.2-5.8-2.9-11-7.4-16.7-10.7-1.5-.9-7.3-3.2-5.1-5.9.6-.8 4.3 1.7 5.1 2.2 5.2 3.4 10.9 6.3 16.1 9.9.9.6 5.2 4.2 6.2 2.8 1-1.5-4.7-4-5.6-4.6-6-3.6-12.4-6.8-18.3-10.6-1.1-.6-5.6-3.2-3.5-5 .9-.7 4.3 2 5.1 2.4 5.2 3.3 10.6 6.6 15.6 10.2.8.6 5.8 4.4 6.6 2.7 1-1.9-5-3.8-6.1-4.3-5.9-2.8-12-7.4-17.2-11.4-1.1-.8-5.8-3.3-4.6-5.1.8-1.2 3.8 1.2 4.6 1.7 4.8 2.9 9.7 5.9 14.5 9 .9.5 4.8 4 5.6 2.6 1-1.5-5.2-4.2-6.2-4.8-4.9-2.9-9.8-6.1-14.5-9.2-2.1-1.4-4.5-2.9-3.9-5.7.5-2.7 3.9.7 5 1.4 4.5 3.1 8.9 6.6 13.5 9.4 1 .6 4.7 3.3 5.6 2 .7-1.1-3.3-2.8-4-3.2-4.8-2.9-10.1-6.2-14.5-9.7-.7-.6-5.4-3.7-4.7-4.6.9-1.1 4.3 1.5 5.2 2.1 5.4 3.2 10.7 6.6 16.1 9.8.7.4 5.6 4 6.1 3 .5-1.2-5.2-4.4-6.1-4.9-5.2-3-10.5-6.1-15.6-9.5-1.2-.8-4.9-2.3-4.9-3.9-.1-3.3 2.5-2.4 4.4-1.3 4.4 2.8 9.1 5.3 13.4 8.2.7.4 4.8 3.8 5.3 2.2.5-1.9-4-3.6-5.3-4.3-3.9-2-7.5-4.6-11.3-6.8-1.3-.8-3.9-1.9-4.6-3.3-1.3-2.9 1.9-2.9 3.5-2.1 4.1 2.2 8 4.9 11.8 7.5.5.3 4.1 2.6 4.1.9 0-1.3-2.7-2.2-3.6-2.7-3.7-2-7.3-4.3-10.7-6.7-.9-.6-3.8-2.1-3.4-3.4.3-1.1 2.7.5 3.4.7 2.7 1 8 6.8 10.7 6.2 1.1-.3 1.4-2.8 2.1-3.7 2.9-3.2 6.4-6.3 9.7-9.1.5-.5 2.3-2.7 3.1-2.7.6 0 1.3 2.2 1.3 2.7.3 3.2-7.3 8.2-9.3 10.2-.6.6-3.8 3-3 4 1.2 1.7 4-2.3 4.6-3 2.3-2.4 10.7-12.6 13.9-8.9 1 1.2-1.3 2.8-2.1 3.5-1.3 1.3-10.2 8.5-8.9 10.1 1 1.2 2.9-1.5 3.5-2.1 2.8-2.8 5.6-5.8 8.5-8.4.6-.6 2.3-2 3.1-.6.6 1.1-1.3 2.5-2 3.1-2.7 2.7-5.5 4.9-8.1 7.5-.6.6-3.2 2.9-1.9 4 1.2 1 3.3-2.7 3.9-3.3 3.2-3.1 10-11.8 14.2-7.7 1.1 1.1-1.5 2.1-2.2 2.8-1.5 1.2-9.8 8.1-8.8 10 .7 1.6 3-1.6 3.4-2.1 1.5-1.6 10.4-11.8 12.2-8.4.7 1.3-6.2 7-7.3 8.1-.5.5-2.6 1.8-1.9 2.8 1.3 1.9 8.9-6.7 9.9-7.6.4-.3 3.2-3 3.2-.8s-6.2 6.5-7.6 8.2c-.4.4-2.6 2.2-1.8 3s3.8-2.6 4.4-3.1c1.5-1.4 5.7-6.5 7.7-6.5 3.2-.1 10 7.3 12.8 5.4 1.9-1.2-.3-8.1-.4-9.9-.2-3 3.2-5.7 5.4-7.3 2.4-1.7 4.3 1.8 5.6.6 1.6-1.3-1.8-3.4-.3-4.6 2.1-1.6 5.3-1.9 7.4-3.1.9-.5.2-1.7 1.2-2.2s2.2.4 3.1-.3c2.5-1.8 4.9-5.1 8.2-6.7 6.4-3.2 13.4-5.9 19.3-10.1 5-3.6 10.6-10 11.8-16.2.2-1 .8-5.9 2.2-5.6 1.3.3 2.5 2.9 3.2 3.9 3.8 5.5 4.1 7.7-.5 12.9-1.7 1.8-3.8 4.3-5.9 5.6-8.3 4.7-26.5 11.3-19.9 24.5 3.8 7.6 11.9 10.2 19.9 10.7 1.4.1 9.6-1.9 9.9-1.4.9 1.5-1.1 6-1.6 7.4-1.9 5.7-3.2 12-4.9 17.7-.4 1.5-1.8 7-3.9 7-1.8 0-2.1-2.6-2.7-3.8-1.5-2.7-8.6-10.6-7.2-13.9 1.6-3.9 10-1.3 12.5-3 1.3-1-2.6-1.8-3.1-1.8-1.6-.1-3.9.4-5.4.9-1.4.5-2.9.6-4.3 1.2-1.1.5-4.6 2.2-4.2 3.7.2.8 2.2.9 2.8 1.7 2 2.5 2.8 5.9 4.4 8.6.6 1.1 2.2 2.4 2 3.8-.4 1.9-4.5 4.2-6 5.3-5.4 4-10.9 7.8-16.1 12-1.6 1.3-5.2 5.1-7.3 5.3-.3 0 1.8-9.6 2.2-10.7 3.2-10.4 5.4-20.9 8.8-31.2.4-1.3 2.8-9 .7-9-2.8 0-2.8 7.5-3.4 9.5-3 10.3-6.4 20.7-8.8 31.2-.3 1.4-2.2 11.3-3.4 11.3-.8 0-1.9-2.6-2.2-3.2-1.7-3.2-2.6-7-4.4-10.2-2.5-4.6-4.9-9.1-7-14-.6-1.4-2.2-3.2-1.9-4.8.4-2.1 3.3-3.5 4.7-4.8 5.6-5.1 11.2-8.5 18.3-10.9.9-.3 6.6-2.1 4.3-3-5.8-2.1-14.1 4.2-18.3 7.3-3.5 2.6-9.6 6.1-12.1 9.4-5.9 7.7-11.6 20-11.6 30 0 5.5-.5 11.3 0 16.7.1 1.4.7 4.9 2.2 5.3 3.1.8 7-3.8 7.4-6.4.5-3.5-1.3-6.8-1.6-10.2-.6-6.4-.9-12.3.4-18.8.3-1.5 2.6-10.2 4.3-10.2 1.2 0 4.4 7.5 4.3 8.6-.3 1.8-2.9 4-3.7 5.9-1.4 3.4-2.4 12.7-.5 16.1 2.7 5 8.7-3.1 9.9-5.4.3-.5.2-2.7 1.1-2.7.7 0 1.3 2.2 1.5 2.7 1.1 2.7 3.1 5.2 3.9 8.1.6 2.2-2.4 6-3.3 8.1-3.7 8.5-7.7 16.8-11.5 25.3-.8 1.8-6 9.1-4.1 10.5 2.1 1.6 11.2-1.3 13.8-1.8 3.4-.6 6.8-.9 10.2-1.8 4.3-1 10.7-.4 14.5-1.9 3.2-1.3-1.8-7.4-2.8-9.3-3.7-7.4-8.3-14.3-11.4-22-.8-2-2.6-4.8-2.5-7 0-3.2 4.8-5.3 7-7.1 5.5-4.6 11.5-8.6 17.2-13 2-1.5 5.1-4.8 7.5-5.5 5.9-1.6-.2 7.8-1 8.9-4.7 6.3-10.5 11-17.3 14.9-1.9 1.1-7.5 1.7-8.3 3.4-1 1.9 1.7 3.3 3 4.1 3.1 2 8.3 1.7 11.3-.5 7-5.2 11.4-13.4 15.8-20.8 7.6-12.7 10.6-25.6 14-39.8 1-4.2 2.8-7.9 4-11.8 1.7-5.3.6-12.1.6-17.7 0-10.2.2-22.9-5.6-31.7-9.1-14-23-17.3-38.5-18.8-5.4-.5-11.7-2-17.2-.9-3.9.8-7.9.2-11.8.4-10.2.7-20.2 3.5-29.6 7.3-2.9 1.3-7.1 1.8-9.6 3.6-9.4 6.9-18 15.3-25.4 24-1.1 1.3-.6-1.1-2.1.5-3 3.4-5 8.4-7.2 12.4-7.2 13.4-12.9 27.6-14.4 43-1.2 12.2 1.1 25.3 3.6 37.1 3.2 15.4 6.3 30.9 12.3 45.7 3.5 8.8 9.6 16.3 12.8 25.3.9 2.7 3.9 5.4 5.6 7.5 4.1 5.5 7.9 11 12.4 16.1 5.6 6.4 10.5 13.6 16.3 19.9 3.7 4.1 8.7 6.5 12.7 10.1 6.6 6.1 14 12.7 22.2 17.8 9.7 6.1 21.5 12.5 32.2 11.8 1.6-.1-1.1-6.2-2.4-7.3-2.6-2.2-6.9-2.5-9.9-3.6-.5-.2-3.5-2.4-3.3-2.9.1-.4 4.4 1.2 4.9 1.4 5.4 2.4 13.5 2.1 10.2-6-4.1-9.8-13.6-9.2-22-12.6-12.1-4.9-23-12.6-33.9-20-4.3-2.9-8.4-6.1-12.4-9.4-.9-.7-3.8-2.7-2.2-4 1.1-1 3.5 2.1 4.4 2.7 4.3 3.1 6.6 6.4 11.8 8.2 7.9 2.7 16.5 4.2 24.2 7.7 2.4 1.1.7 3.2 2.7 4.3 4.7 2.5 10.7 3.8 15.6 6 4.5 2.1 8.8 4.8 13.4 6.4 4.1 1.5 8.2 3.4 11.8 5.8 1.1.7 2.5 3.4 3.8 3.1 1.6-.3 1.1-3.1 1.1-4.2 0-2 0-11.6 2-12.5 1.6-.7 5.7 1.8 6 3.3.6 2.9-3.9 12.9 3.3 12.2 2.6-.3 5.9-6.1 7-8.4 1.4-3 .2-7 .5-10.2.5-5 3.6-12.9 7.1-16.7 9.6-10.2 32.7-1.3 32.7-21 .9-2.2 1.3-4.5.7-6.3zm-40-56.1c-1.7.8-2-3.2-.8-4 1.7-1.1 2.3 3.3.8 4zm18.5 15.3c-2.1 1.6-1.2-5.5 0-6.4 1.3-1 1.5 5.3 0 6.4zm3.6-5c-1.1 0-.1-4.1 1-4.4 2-.4.9 4.4-1 4.4zm4.4-18c2.2-.9 1.9 4.8.1 5.2-2.2.6-1.7-4.5-.1-5.2zm-1.1 11.2c-1.6.3-2.4-3-1-3.5 1.8-.6 2.8 3.1 1 3.5zm-2.1-15.4c1.6-.7 1.4 4.8 0 5.5-1.5.8-1.5-4.8 0-5.5zm-1.4 11.9c-1.3.7-1.8-2.8-.6-3.4 1.4-.7 1.8 2.8.6 3.4zm-2.4-15.2c2.3-1.2 2.2 4.8.7 5.5-2.1.8-2.4-4.6-.7-5.5zm-2 7.2c1.8-.4 3 4.1 1.4 4.8-1.8.9-3.2-4.4-1.4-4.8zm-1.1 6.8c1.6-.7 2.5 3.4 1 3.8-1.7.4-2.5-3.2-1-3.8zm-2.2-10.2c1.3-.7 1.5 2.9.7 3.5-1.3 1.1-2.2-2.6-.7-3.5zm-3.4-2.8c1.7-1 1.9 2.3.6 2.9-1.3.8-1.8-2.2-.6-2.9zm-4.9 1.7c1.6-.7 2.1 3.3.7 3.6-1.7.4-2.2-3-.7-3.6zm-1.9 17.2c-2.3.5-3.3-5-1.2-5.9 2.4-.9 3.5 5.5 1.2 5.9zm.2-11.4c1.2-1.1 2.7 2.2 1.6 3.2-1.3 1.1-2.7-2.2-1.6-3.2zm2.8 14.4c-1.6 1.2-1.7-3.8-.3-4.6 1.4-.7 1.2 3.8.3 4.6zm1.8-7.3c-1.4.4-2-3.1-.9-3.7 1.3-.7 2.3 3.3.9 3.7zm.5-8.7c1.3-.9 1.9 1.8.9 2.5-1.2.9-1.9-1.8-.9-2.5zm3.5 13.2c-1.7 1.2-3.6-3.6-1.7-4.5 1.7-.7 3 3.6 1.7 4.5zm.8-6.1c-1.4.4-2.3-3.1-1-3.8 1.6-.7 2.5 3.4 1 3.8zm1.6 6.4c1.6-.7 2.4 2.8 1.1 3.4-1.7.8-2.7-2.7-1.1-3.4zm-71.6-.1c2.9 5.8 6.4 11.3 9.2 17.2.7 1.5 2.7 4.6 2.2 6.2-.6 1.8-5.6 1.9-7.2 2.3-7 1.4-15.5 4.5-22.6 3.9-4-.4-1.1-4.9 0-7 3.6-7 6.6-14.3 9.9-21.5.7-1.5 2.6-7.8 4.5-7.9 1.6-.1 3.3 5.5 4 6.8zm19.2-78.7c-1.6.6-3.9-6.1-2.7-6.6 1.1-.5 3.6 6.3 2.7 6.6zm6.9 4.9c-1.3 1.2-3.5-1.8-3.9-2.6-1.1-1.9-6.2-12.9-3.8-14.4 1.3-.9 2.3 1.8 2.7 2.6l4.3 10.7c.2.8 1.5 3 .7 3.7zm1.4-2.6l-5.1-12.4-.6-4.1 2.5 4.1 5.3 12.4 1.1 3.9-3.2-3.9zm18.6 2c-1.4 2.2-6.2 2.7-8.6 2.9-6.4.3-9.3-11.8-11.4-16.7-.5-1.3-3.1-6.3-1.3-7.3 1.1-.7 2.5 4 2.7 4.7 1.7 4.1 3.2 8.4 5.1 12.4.8 1.6 2.7 3.1 4.4 1.4 1.1-1.2-1.3-4.1-1.8-5.1-1.7-3.6-3.1-7.5-4.5-11.3-.4-1.2-1.5-3.2-.7-4.4 1.1-1.5 2.9 3.9 3.2 4.4 1.7 4.2 2.9 8.6 4.4 12.9.5 1.4 1.5 3.6 3.4 2.9 1.8-.7.4-3.3-.1-4.5-2-4.8-3.5-9.7-5.4-14.5-.5-1.2-2.3-5.4.7-5.2 2.9.2 4 8.5 4.7 10.6 1.4 3.4 7.3 13.4 5.2 16.8zm-1.1-14.9l-4.4-11.3-.5-4.1 2.5 3.6 4.3 11.8.6 4-2.5-4zm2.8-4.5c-.7.6-1.5-2.2-1.6-2.5-.7-1.9-5.3-10.1-3.5-11.7 1.1-.9 1.8 2.1 1.9 2.6.7 2 5.1 9.8 3.2 11.6zm-136.8 19c-1.6.2-2.8-2.2-.9-2.5 1.6-.3 2.6 2.2.9 2.5zm3.1-10.2c-1.7 1.1-4.6-1.5-2.3-2.6 1.5-.8 4.2 1.3 2.3 2.6zm1.9-7.4c2.7-1.1 4.2 2.3 1.6 3.7-2.9 1.3-4.5-2.5-1.6-3.7zm-3 11.8c1.6-.9 3.7 1.5 1.8 2.5-1.7.8-3.8-1.5-1.8-2.5zm3.7 8.5c-1.4 1-4-1.1-2.1-2 1.1-.5 3.5 1 2.1 2zm-.2-12.7c2.2-.7 3.8 2.3 1.5 3.1-2.1.7-3.8-2.2-1.5-3.1zm54.2 20.1c-2.9-.3-6-2.7-8.5-4.1-5.4-2.8-11-5.4-16.1-8.7-1.7-1.2-6.1-2.8-6.8-4.8-.6-1.9 4-4.4 5.2-5.4 4.6-3.7 9.6-6.9 14.5-10.2 1.5-1 4.3-3.4 6.3-3.1 2.1.3 2 4.8 2.3 6.4 2 7.2 3.3 14.6 4.3 22 .3 1.6 1.8 8.2-1.2 7.9zm6-13.8c-.6.5-1.2 1.2-2 1.4-1.8.5-3-8.4-3.4-10-.1-.5-.9-3.1 0-3.4 1.8-.6 2.6 3.7 3.4 4.5 2.8 3 6.8 3.3 2 7.5zm6.4-5.3c-3.9 1.7-12.5-9.2-13.5-12.5-.2-.8-1.6-5.8-.6-6.3.9-.4 3.1 3.6 3.6 4.1 2.9 3.5 6.3 6.8 9.3 10.2 1 1.2 3.7 3.4 1.2 4.5zm37.1-21.3c-2.6 1.2-10.4-9.4-11.7-11.6-.7-1.3-1.8-4.3.3-5.2 2.2-.9 2.5 3.3 3.1 4.3 1.5 2.5 5.7 5.5 7.8 8.2.9 1.2 2.7 3.3.5 4.3zm-11.8-27.1c2.5-1.2 3.1 3.8.9 4.6-2.3.8-2.7-3.6-.9-4.6zm-2 10.3c-2.1 1.5-3.5-3.1-1.8-4.4 2.2-1.6 3.8 2.9 1.8 4.4zm11.5-6.6c-1.5 1.4-4.9-1.7-3.2-3.2 1.6-1.4 4.6 1.7 3.2 3.2zm-.9 11.6c-2.5.9-2.7-4.8-.3-5.6 2.7-.7 2.5 4.8.3 5.6zm-3.3-5.2c-2.7 1.3-4.2-4.6-1.3-5.6 2.6-1 3.9 4.4 1.3 5.6zm7 5.2c1.6-.3.7 3.8-1 3.8-1.9.1-.3-3.5 1-3.8zm-.7-9.7c1.2-.3 2.1 2.1 1 2.7-1.3.8-2.3-2.3-1-2.7zm4.5 18c-2.7.5-4.4-3.8-1.5-4.7 2.2-.7 4.2 4.2 1.5 4.7zm-1.2-13.3c1-.5 1.7 1.3.9 1.9-1 .8-2-1.3-.9-1.9zm5.4 8.8c-1.8.7-4.4-3.7-2.7-4.5 1.8-.7 4.9 3.7 2.7 4.5zm4.7-17.5c2.2-1.2 2.2 4.6.6 4.9-2.5.6-2.4-3.9-.6-4.9zm-2.8-2.5c1.4-.6.9 1.9-.1 2.3-1.2.5-.8-1.9.1-2.3zm-.9 8.5c2.7-1.4 5.1 5.4 2 6.7-3.5 1.5-5.3-5.1-2-6.7zm-2.3-3.7c2-.7.6 3.9-.8 4.5-2.3.8-.7-3.9.8-4.5zm-3.4-4.7c3.2-.5 2.1 5.5-.5 5.5-3.1 0-1.8-5.1.5-5.5zm-4.6-6.1c3.2-1 4.6 6.3.9 6.8-3.3.6-4.1-5.8-.9-6.8zm-4.9-2.2c4.3-2 .5 6.9-1.5 7.9-1.6.8-2.3-1.4-2.1-2.6.2-1.8 2-4.6 3.6-5.3zm-5.9-1.7c1.8-1 4.4 0 3.3 2.2-1.9 3.8-5.9 6.4-7.8 9.6-.8 1.3.3 3.9-1.7 4.7-2.1.8-1.9-3.1-1.6-4.1 1.1-3.3 4.7-10.7 7.8-12.4zm-4.8-1.1c1.1-.7 2.9-.5 2.4 1.1-1.8 5.3-6.3 9.6-8.8 14.3-.6 1.1-2 1.6-2 2.9-.2 3.9 6.5 9.8 8.7 12.8 1.4 1.9 5.8 9 8.4 9 1.1 0-2.1-3.3-2.4-3.6-3.9-3.9-7-8.4-10.2-12.9-.5-.8-3.2-4.5-1-5 1.7-.3 2.1 3.4 3.2 4.3 4.4 3.5 7.7 8.7 11 13.1 1.3 1.8 3.9 4 1.6 6-6.7 6.1-11.9-5.8-15.2-10.3-2.3-3.1-6.6-6.8-7.5-10.7-.4-1.9.9-3.7 1.7-5.4 2.3-4.3 5.8-13 10.1-15.6zM198 95.3c.9-.5 5.5-2.1 5.9-.5.6 2.6-3.7 7.9-5 10-.5.7-2.4 3-1.6 3.8.9.8 2.7-3.2 3-3.8 1.1-2 6.1-13.7 9.6-11.6 1 .6-.8 3-1.2 3.5-1.8 3.1-3.9 6-5.7 9.1-.3.5-2.1 3.8-1 4.1 1.1.4 2.6-2.9 2.9-3.6 1.8-4.1 4-7.7 6.6-11.3.6-.9 2.5-3.5 3.8-2.2.8.7-.5 2.5-.8 3.2-1.7 3.3-3.6 6.4-5.3 9.7-.3.7-2.1 3.1-1.2 3.8 1.1.8 3.5-3.1 3.9-3.8 2.4-3.5 2.9-7.7 5.2-11.3.7-1.3 2.4-3.4 4.2-2.4 1.1.6 0 2.2-.5 3-1.8 3.1-3.8 6-5.5 9.1-.3.5-2.5 3.7-1.1 4 1.5.4 2.8-3 3.3-4 1.7-3.5 4.3-10.9 8.2-12.5 3.6-1.4.9 3.4.1 4.4-2.4 3.9-5 7.8-7.2 11.8-.6 1.1-2.3 2.7-2.2 3.9.5 4.3 7.4 9.7 9.9 13.3 2 2.9 4.2 5.6 6.1 8.6.3.4 2.3 3.1 1.2 3.4-1.7.4-3.9-2.9-4.8-3.9-3.6-4.3-6.8-8.8-10.4-13.1-.7-.8-3.4-5.4-4.6-5-1.2.5 3 5.2 3.4 5.7 3.7 4.6 7.3 9.3 11.1 14 .6.8 4.2 3.8 3 4.9-1.5 1.4-4.5-1.4-5.4-2.4-4.4-4.2-7.7-9.7-11.6-14.4-.4-.5-4.5-5.6-5-4.5-.5 1.4 2.6 3.9 3.3 4.7 3.7 4.1 6.8 8.6 10.4 12.7.9.9 4.9 4.5 3.8 6-1.1 1.3-4.7-2.7-5.4-3.4-4.3-4-7.4-9.1-11.4-13.3-.3-.4-4.3-4.6-4.5-3.8-.3 1.3 2.7 3.6 3.5 4.5 3.6 3.8 7 8.1 10.4 12.2.9 1.1 4.3 4.1 3.2 5.6-1.4 1.9-3.8-.9-4.7-1.9-3.9-4.3-7.8-8.8-11.4-13.4-.3-.4-4.1-5.4-4.4-4.5-.5 1.3 2.2 3.6 2.9 4.5l10.3 12.4c.6.7 5 5 2.7 5.7-1.6.5-4-1.6-5-2.7-3.6-3.6-6.6-7.9-10-11.7-.4-.4-3.9-4.9-4.4-4.3-.9 1.1 2.1 3.6 2.7 4.3 3.4 3.9 6.7 7.9 10.1 11.8.5.6 4.4 4.5 2.7 5-3.8 1.1-9.1-7-11.1-9.3-2.4-2.9-7.3-6.6-8.7-9.9-2.4-5.7 1.2-14.1.9-20.1.2-2.4.3-12.5 2.8-14.1zm-25.9 8.7c5.9-3.7 13.4-6.2 19.9-7.6 4.1-.8 2.7 3.1 2.4 5.7-.8 5.9-1.4 11.9-1.8 17.7-.1 1.5.8 6.6-1.1 7.3-1.5.7-4.8-2.9-5.9-3.7-4.7-3.5-10-6.5-14.5-10.2-1.1-.9-4.3-3-4.2-4.7 0-1.9 3.8-3.6 5.2-4.5zm-12.3 14.8c.5-1.7 3.5-.1 3.5-.3 0-.9-2.3-1.9-2.8-2.5-1.6-2 1-4.9 3-5.5 2.5-.7 5.3 3 7 4.4 5 4.2 10.7 7.8 16.1 11.6 1.4 1 5.3 3.1 5.3 5.2 0 1.9-4.4 3.8-5.8 4.7-4.7 3.5-9.9 6.3-14.5 9.9-2.1 1.6-4.8 4.7-7.5 5.1-2.4.4-2.9-10.6-3-12.8-.2-4.8 0-9.9-.2-14.7-.1-1.7-1.5-3.1-1.1-5.1zm-.6 30.6c-1.6 3.2-8.3 10.1-11.8 11.2-1.4.4-3.5-.7-2.7-2.3 1.9-4.1 9.2-12.4 13.4-14.1 2.5-1.1 1.7 4.1 1.1 5.2zm-.3-8.8c-1.2 2.5-8.1 9.7-11 9.7-2.4 0-1.9-2.2-.5-3.3.8-.6 3-.4 3.4-.8.4-.6-.4-2 .2-2.9 1.5-2.3 3.4-1.8 5.3-3.1 1.2-.8 0-3.4 1.8-3.8 1.5-.4 1.1 3.4.8 4.2zm-9.4 1.9c-3.4 1.8-4-2.9-1.1-4.3 3.9-1.8 4.1 2.7 1.1 4.3zm3-8.6c2.1-1.1 4.3 1.9 1.8 3.2-2.2 1-4-2-1.8-3.2zm5.8-1.3c-1.7 1-4.1-1.4-1.8-2.4 1.5-.5 3.3 1.5 1.8 2.4zm-1.9-15.8c1.4-.5 1 1.5 0 1.9-2 .7-1.3-1.4 0-1.9zm-1.5 6.3c2.4-.8 4.5 3 2 3.6-2.4.5-5.2-2.7-2-3.6zm-4.7 3.8c1.8-.9 5.8 1.6 3.4 3.2-2.1 1.3-6.4-1.6-3.4-3.2zm-3.9 4.2c2.1-.9 6.1 1.7 3.1 3.2-2 1.1-6.4-1.7-3.1-3.2zm-3.7 3.9c3.7-1.6 5.7 3.1 1.9 4.8-3.6 1.6-5.4-3.2-1.9-4.8zm-3.7 6c2.5-1 3.4 2.5.9 3.4-2.3 1-2.9-2.5-.9-3.4zm-3.7 11.1c1.7-.9 4.1 1.4 2.3 2.7-1.7 1.3-4.4-1.5-2.3-2.7zm-2.2 3.8c1.6-.4 2.5 1.8.8 2.3-1.5.4-2.3-1.9-.8-2.3zm7.4 101.6l-3.8-12.3 2.5 1.5 2.4 9.5 1.1 3.7-2.2-2.4zm9.7 25.4c-2.5.9-2.2-3.5-.6-4.4 2.1-1.1 3.2 3.4.6 4.4zm9.1 8.5c3.9-1.5 2.4 4.4-.4 5.4-3.4 1.2-1.8-4.5.4-5.4zm4.3 3.8c4.3-1.2 1.2 5-1.6 5.6-4.3 1-.5-4.9 1.6-5.6zm1 8.7c-2.7.4-1.1-2.9.6-3.3 2.6-.6 1.4 2.9-.6 3.3zm6.5-2.8c1.5-1.1 4.9 3 3.4 4.1-1.4 1.1-4.8-3.1-3.4-4.1zm11.9 20.7c4.2 3.7 9.1 3.9 13.4 7.2 6.6 5.3 11.7 12.3 18.3 17.7 2.7 2.2 5.4 3.8 8.4 5.5.3.2 2.7 1.5 1.8 2.1-2.1 1.3-5.4-2.5-7.1-3.2-7-2.9-11.4-7.8-16.6-13.1-1.7-1.8-3.5-5.1-5.8-6.2-1.1-.5 3.9 6.2 2.7 6.2-3.6 0-7.3-5.9-8.9-8.4-1.4-2.1-3.9-2.6-5.8-4.3-3.1-2.7-5.4-6.3-8.4-9-.6-.5-5-3.9-3.8-4.9.8-.6 2.7 1.6 3.1 2 3 2.7 5.6 5.8 8.7 8.4zm90.6-29.8c1.1-.6 2.6 1.1 1.5 2-1.3.9-2.8-1.3-1.5-2zm-53.1 30.8c-6.1 1-16.6-5-22.5-6.7-1.1-.3-7-1.7-6.3-3.5.9-2.3 7.9-3.6 10-4.4 10.1-3.6 22-9.7 32.8-11.1 3.5-.5.5 3.8-.3 5.1l-9.6 15.6c-1 1.5-1.9 4.7-4.1 5zm4.1 1.7c-1.9-1.4 1.2-5.4 1.9-6.8 2.7-5.2 7.3-16.4 12.9-18.8 4.2-1.8 16.3 2.4 20.2 4.6 1.1.6 4.8 3.2 4.5 4.6-.2 1.7-3 2.7-4.3 3.3-4.6 2.4-9.3 4.8-14 6.8-5 2.2-10.4 3.7-15.6 5.6-1.6.4-3.9 1.9-5.6.7zm39.2 14.1l-2 6.1-7.4-3.3-19.9-9.2-8-4.4 8.5-4.2 20.4-8.1 9-4.4 1.1 6.9-1.7 20.6zm1.9-38.7c-1.4 1.3-4.2-2.7-5.2-1.2-.5.8 2.8 2.5 1.6 2.9-4 1.1-13.3-3.1-17.3-4.2-1.6-.5-3.8-.9-4.3-2.8-1.1-4.1 3.5-11.5 4.5-15.6.7-3 1.6-15 5.4-15.8 1.4-.3 2.7 3.6 3.1 4.5 2.4 4.9 4.5 10 6.4 15 1.5 3.6-.3 3.9 2.3 7.2.4.4 1.3 1.8.7 2.4-.7.7-3.3-1.4-3.7 0-.5 1.6 9.5 4.5 6.5 7.6zm.8-6.9c.9-1.3 9.2 3.2 7.2 5.5-.2.2-9.1-2.9-7.2-5.5zm6.2 10.6c-1.6 1.2-4.9-3.6-3.6-4.6 1.4-1.1 5.8 3.1 3.6 4.6zm1.4 19.2c-1.4.7-2.2-2.1-1-2.8 1.4-.9 2.3 2.1 1 2.8zm-4.5 4.2c-1.5.6-2.8-2.4-1.5-3.4 1.4-.9 2.5 3 1.5 3.4zm-.7-9.2c1.1-.6 1.4 1.8.6 2.4-.9.9-1.6-1.8-.6-2.4zm.6-6.5c1.6-1.4 2.7 2.7 1.3 3.8-1.8 1.1-2.4-2.8-1.3-3.8zm3.4 22.3c-1.7.9-7.7-3-5.6-4.6 2.1-1.5 8.8 2.9 5.6 4.6zm1.2-4.7c-2 1.2-3.3-3.1-1.5-4 2.1-1 3.3 3 1.5 4zm1.3-10.8c-1.9 1.2-2.9-3.7-1.2-4.6 2.2-1.2 2.8 3.6 1.2 4.6zm1.2-6.5c-1.4.8-3.3-1.4-1.8-2.5 1.6-1.2 3.6 1.6 1.8 2.5zm1.2-5.2c-1.6.8-2.9-2.3-1.5-3.1 1.6-1 3 2.2 1.5 3.1zm3.4 6.8c-1.7.9-3.1-1.4-1.5-2.4 1.4-.9 3.2 1.5 1.5 2.4zm1.5-5.3c-3.4 1.8-1.7-6.1-.5-6.7 2.7-1.5 2.7 5.5.5 6.7zm2.4-8.7c-.9.4-2.5-1.7-1.6-2.3 1-.7 2.9 1.8 1.6 2.3zm2 8.4c-1.6 1.2-2-1.4-.7-2.2 1.5-.9 1.6 1.5.7 2.2zm5.3-2.2c-2.3 1-6.6-3.8-4.3-4.7 1.6-.7 6.3 3.9 4.3 4.7zm18.8-24.8c.3-.9 4.9 1.6 3.6 3.2-.7.9-3.9-2.2-3.6-3.2zm-12.7 1c-.4-.5-1.8-1.8-1.1-2.5 2.7-2.7 12.7 5.6 9.7 8.6-1.8 1.9-7.4-4.8-8.6-6.1zm.1 22.7c-1.6 1.6-5.1-2.1-3.4-3.2 1.3-.9 4.7 1.9 3.4 3.2zm.1-5c-1.1.8-2.4-1.3-1.1-1.9 1.1-.4 2.1 1.2 1.1 1.9zm1.6-6.2c1.4-.6 2.3 2.4.7 2.7-1.4.4-1.9-2.1-.7-2.7zm2.3 9.8c-1.1.5-2.2-1.8-1.1-2.1 1-.2 2.2 1.6 1.1 2.1zm2.6-3.6c-1.6.9-3.3-2.1-1.5-3 1.6-.8 3 2.1 1.5 3zm.6-6.8c1.1-.8 2.8 1.7 1.8 2.5-1 .9-3-1.6-1.8-2.5zm3.6 9.3c-1.2.9-3.2-1-1.9-1.8 1-.5 3 1 1.9 1.8zm2.5-3.3c-1 1.1-3.3-1.2-2.2-2.2 1.2-1 3.2 1 2.2 2.2zm2.5-3.5c-2.1.9-3.3-2.7-1.3-3.5 2.6-1 3.8 2.4 1.3 3.5z" class="st0"/>
  <path d="M460.2 408.1c-4.8-3.2-9.8-5.8-14.5-9.1-9.1-6.3-19.4-11.3-28.5-17.6-5.1-3.5-9.3-8.1-14.5-11.5-6-3.9-13.2-6.4-18.8-10.8-3.8-3 .1-11 .9-15.1 1.6-8.3 3.2-16.6 5.2-24.7.9-3.9 2.2-10.1 1.3-14-1.2-4.5-6.8-2-9.5-3.3-10.1-4.7-20.6-8.7-30.6-13.4-5.8-2.7-11.7-5.3-17.2-8.5-1.3-.7-4.9-3.4-6.4-2.4s2.7 10.7 3.2 12.6c1.5 6.3 3 12.6 4.6 18.8.9 3.5-2.2 2.7-1.2 4.8 1.3 2.7 8.7 10.9 6.5 13.4-1 1.2-2.6-.5-3.6-1.3-2.4-1.7-6.6-7-9.7-7.1s3.2 5.1.2 5.1c-1.3 0-3.5-4.8-4.7-3.5-2.2 2.3 8 7 2.2 10.3-1.4.8-4-4.1-5.5-2.2-.9 1.2 3.9 3.3 2.1 6.2-1.3 2.1-4.2-1.2-4.5.1-.5 1.9 2.6 2.6 2 4.7-1 3.2-2.6 1.2-3.9 2.4-.8.7.6 2.2.6 3 0 .9-3.1 7-3.9 7 0 0-.2-6.6-2.9-7-5.2-.8-10.6 3.4-15 5.6-5.9 3-12.4 4.9-18.8 6.4-7.6 1.9-15.6 2.8-23.1 4.7-2 .5-2.7 2.4-1.4 4.1 1.6 2.4 7.3 4.3 10 4.7 4.1.7 7.8-.6 11.8-1 7-.7 13.8-.8 20.4-3.4 3.2-1.2 6.4-2.6 9.7-3.8.7-.2 2.9-1.4 3.6-1 .7.5-2.8 5.3-3.1 6-3.2 5.9-6.9 11.5-10.5 17.2-.6.9-3.9 5.4-.7 5.4 2.5 0 3.6-4.7 4.4-6.4 2.7-5.8 7.1-11.8 10.7-17.2.9-1.4 3.5-7 5.4-6.3 7.4 2.8 6.9 15.1 9.8 21.3.6 1.4 3.6 6 2.9 7.4-.6 1.2-4.9 1-6.2 1.3-6.6 1.1-13.7.4-20.4.4-1.6 0-7.2-.5-8 1.2-1.2 2.7 4 10.2 5.1 12.8 3.7 8.4 7.3 17.1 11.6 25.3 1.2 2.3 5 7.6 4.6 10.2-.7 4-10 9.3-13.3 11-4.1 2.1-8.1 4.8-12.4 6.4-9.9 3.7-24.6 6.6-34.9 3.4-2-.6-1.8-2.6-3.3-3.7-2.6-1.7-5.9-3.1-8.5-4.6-14.7-8.2-27.8-18.2-35.9-33.6-1.8-3.4-7-10.4-6.7-14.3.1-1.4 2.5-3.4 3.4-4.5 2.5-2.9 4.2-6.4 6.2-9.7.6-.9 6.7-9.5 4-9.5-1.3 0-2.6 2.7-3.2 3.6-2.8 4.2-5.7 8.2-8.6 12.4-.7.9-2.4 4.3-3.7 4.3-2.1 0-.3-3.1.1-3.8 3.2-4.5 5.7-9.7 9-14 .5-.7 3.7-4.1 2.4-5.1-1.2-.8-3.7 2.8-4.2 3.5-2.6 3.8-4.9 7.6-7.5 11.3-.6.8-2 3.8-3.2 3-1-.6-1.7-2.5-1.3-3.6 1.4-4.3 5.8-9.7 8.4-13.4.5-.7 4.3-4.9 2.1-5.6-1.3-.4-2.6 2.1-3.2 2.9-2.6 3.6-4.8 7.5-7.1 11.3-.8 1.3-2.1 4.4-4 3-4.9-3.4 3.7-12.7 5.7-15.9.4-.7 4.3-4.9 2.2-5.6-1.2-.3-2.2 1.6-2.8 2.3-2.5 3.3-4.1 7.2-6.6 10.4-.6.7-1.8 3.4-2.8 2.9-4.3-2.3 4.1-12.3 6-14.9.6-.8 3.5-3.7 1.9-4.6-1.1-.6-2.6 1.1-3.1 1.9-2.3 3-4 6.5-6.1 9.7-.6 1-2 3.6-3.4 2.6-3.7-2.6 4.2-11.4 6.1-13.9.5-.7 3.3-3.7 2.1-4.6-1-.7-3 1.9-3.4 2.4-2.4 2.8-4.4 6.1-6.4 9.1-.5.7-1.3 3.3-2.6 2.5-1.5-.9.2-2.7.7-3.6 2-3.1 3.9-6.4 5.6-9.7.4-.8 2.3-3.2.9-4-1.5-.8-2.6 2.1-3 3-1 1.9-6.2 12.5-8.2 10.7-2.2-1.9 3.2-9.3 4.5-11.3.4-.7 2.7-3.2 1.3-4-1.1-.7-2.2 1.2-2.7 1.9-1.2 1.7-5 11-7.3 8.4-1.7-1.8 4-8.3 5.1-10 .5-.7 1.8-2.8.6-3.5-1.9-1.1-5.7 7-6.7 8.3-.5.7-1.6 2.6-2.7 1.5-2.6-2.6 8.2-10.9 5.1-13.1-2.3-1.7-6 11.9-8.5 9.4-2.7-2.7 6.9-9.8 3.7-11.6-2.6-1.3-4.6 9.4-7.1 8.2-6.1-3 5-9.7 2.1-12.5-2.1-2-4.6 7.8-6 7.8-.5 0-1.1-1.8-1.3-2.1-.9-1.2-2.8-2.2-3-3.8-.2-1 3.6-6.3 2.9-6.6-1.4-.7-3.5 4.3-4.9 4.6-5 1-.5-8.5-1-8.9-1.5-1.1-2.1 5-4.6 3.8-3.8-1.9-3-3.6-1.3-6.3.2-.4 2.2-3.6 1.5-3.9-1.9-.9-3.3 5.2-5.2 5-1.5-.2-2.9-3.2-3.9-4.3-3.1-3.5-5.9-6.5-8-10.7-7.4-14.7-13.1-27.4-15-44.1-.5-4.6-2.2-9.4-3-14-1.3-6.2-1.3-12.7-3-18.8-1.6-5.4-3.6-10.9-4-16.7-2.2-31 .8-63.3 14.9-91.4 4.5-9.1 9.2-19.9 16.3-27.4 7.4-7.8 16-18.2 25.7-24 9.5-5.7 20.9-8.2 31.2-12.5 6.9-2.9 15.9-8.6 23.6-8.6 16.1 0 33 2.9 47.8 8.9 3.5 1.4 7.6 2.3 10.7 4.7 6.4 5.2 11.8 10.9 17.3 17 5.9 6.6 12.2 13.5 15.4 22 1.8 4.9 3.6 9.8 5.6 14.5.4 1.2 1.9 4.1.9 5.2-2.1 2.3-15 1.8-14.3 6.1.4 2.5 4.2 5.6 5.7 7.5 4.2 5.4 8.3 10.8 12.6 16.1 1.4 1.7 4.7 3.3 5.4 5.4.9 2.7-.2 6.5.5 9.3.9 3.4 2.5 6.6 3.4 10 .3 1.2 1.1 6 2.4 6.4 1.7.4.4-2.6.3-3.1-1.4-3.6-2.3-7.5-3.4-11.3-.2-.5-1.1-4.3-.3-4.3 1.2 0 3.9 4.9 4.6 5.9 4.2 5.9 8.4 12.9 13.8 17.7 2 1.8 7.7 5.4 9.9 2 1.9-2.8-1.5-10-3.6-12-6.1-5.6-12.5-9.6-17.6-16.3-1.5-2-4.4-5.4-4.2-8.1.2-2.8 4.1-7.2 5.6-9.7 3.9-6.9 8.7-13.5 11.6-21 .8-2.1 5.1-7.3 3.7-9.6-1.2-1.9-5.1.7-6.5 1.1-5.6 1.6-11.4 3.7-17.2 4.7-1.5.2-4.7 1.7-5.8.5-3.2-3.1-4.7-11-7.3-15-9.6-14.7-18.8-33.6-33.7-43.9-11.4-7.9-23.2-10.2-36-14-4.8-1.4-14.4 1.6-18.2-1.4-5.6-4.4-12.2-15.4-15.1-21.9-1.1-2.4-3.6-5.5-4-8.1-.1-1 .8-2.6-.4-3.1-3.4-1.4-10.9 1.7-14.4 2.1-7 .8-14-.4-21 0-5.4.3-11.3 1.4-16.7.5-1.6-.2-2.3-1.8-3.8-2.1-11.6-2.1-19.7-9.6-30.1-15.2C109.1 7 102.8.4 99 2.4c-1.6.9-.5 5.5-.5 7.3 0 7.5-.5 14.7-.5 22 0 6.1 2 15.8.1 21.5-.4 1.2-1.9 1.4-2.3 2.7-3.3 9.5-6.8 19-9.9 28.5-1.6 4.7-2.6 13.3-5.7 17.2-1.7 2-6.5 1.9-9 2.1-7.9.8-15.7 2.8-23.6 3.2-1.2.1-11.5.9-11.2.1-.7 1.8 2.8 4.9 3.7 6.4 4.1 6.2 9.5 12.2 12.9 18.8 2.4 4.7 5.8 9.5 8.8 14 1.1 1.6 3.4 3.4 3.8 5.4.6 2.8-3 7.9-3.8 10.7-2.6 10.4-5.3 21-8.4 31.2-2.3 7.4-4.5 14.7-6.6 22-.4 1.5-3.3 6-2.1 7.3.8.8 3.5.6 4.6 1 2.5.9 5 2.1 7.5 3 8.3 3 16 7.3 24.2 10.6 4.1 1.7 11.9 3.5 14.2 7.7 6.6 12.1 6.5 27.4 9.6 40.3 2.8 11.9 6.8 23.5 12.3 34.4 5.8 11.6 16.5 21.4 25.7 30 1.5 1.5 4.5 2.5 5.7 4 .7.8-.4 2.1.4 2.8 1.1 1 2.7-.6 3.9 1.3.7 1.1-.5 2.7.4 3.7s1.9-1.1 3-.3c1.5 1.2 0 2.8 1.1 4 1 1.2 2.6-.3 3.4.7 2.2 2.6 3.9 7.1 6.4 10.1 4.9 6.1 11 11 15.8 17.2 13.5 17.7 19.7 40.3 36.7 55.4 9.3 8.3 23.1 12.9 34.9 15.4 4.4.9 14-1.2 17.6 1.3.7.5.2 3.9.1 4.7-.7 4.8-2.1 10.5-3.9 15-.4 1.1-2.7 2.5-2.2 3.6.4.9 2 1.8 3 1.7 4-.4 7.5-.6 11.8.3 13.2 2.6 26.5 5.2 39.8 6.8 3.3.4 9.8 3.1 12.9 2.1 3.7-1.2 7.4-10.7 9.5-13.9 5-7.5 10.2-14.7 16.3-21.5 1.7-1.9 2.9-5.3 4.8-6.8.9-.7 2.2.2 3.1-.4s.6-1.8 1.7-2.4c13.3-7.4 30.5-8.6 44.6-14.2 2.2-.9 3.7-3.7 5.9-5 7.3-4.4 15-8.5 22.6-12.5 4.7-2.5 9.7-4.7 14.5-7 2-.9 6-2 7.3-4 .7-1.3-2.7-3.1-3.7-3.8zm-150.5-52.4c.3.9-1.6 2.2-2.1 2.6-10.7 8.3-28.7 9.7-41.7 10.8-3.4.3-7.3-.8-10.4-2.1-1.1-.4-3.5-1.4-2.8-2.9 1.2-2.7 11.5-2.4 14.1-3 14-2.9 25.5-8.6 38.7-13.5 4.4-1.6 6.1 3.4 3.5 6.4-.5.6-3.3 1.7-3.3 2.4 0 .8 3.6-1.6 4-.7zm10.2-223.2c.8-1.1 2.6-1.4 3.8-1.7 3.2-1.1 10.3-4.2 13.6-3.3 1.9.5-.7 4.9-1.1 5.8-2.4 5-5.1 9.7-7.9 14.5-.6 1.1-1.9 4.3-3.4 4-2.1-.4-3.9-9-4.4-10.9-.4-2.2-1.8-6.4-.6-8.4zm-9.1 1.7c2.1-.9 3.7.4 4.4 2.3 2.2 6.3 5.6 14.1 6.8 20.6.2 1.3-1 4-2.3 4.5-1.8.7-3.5-4.1-4.1-5.2-2.5-5-3.9-10.7-5.4-16.1-.3-1.9-1.7-5 .6-6.1zm-2.2 6.6c1.9 5.7 3.4 11.5 5 17.2.2.8 4 6.9 2.7 6.9-2.7 0-6.5-6.1-8.1-8-3.5-4.1-6.5-8.6-9.8-12.9-.8-1.1-3-3-2.7-4.6.3-2 6.9-3.5 8.6-3.8 3.3-.4 3.5 2.8 4.3 5.2zm-175.9-50c-1.8 6.6-9.4 12-13.1 17.7-1.2 1.8-3 5.4-5.5 5.4-7.2 0-15.2-5.9-22-7.9-1.1-.3-6.8-1.7-6.5-3.4.4-2.1 8.9-4.8 10.8-5.9 8.8-5.1 18.4-10 27.9-13.4 2.6-.9 6.7-3.3 9.5-3 2.3.5-.7 9-1.1 10.5zm11.5-8.8c-2.7 2-4.8 5.4-7.9 6.8-1.3.6.3-10.4 2.3-11.9 1.3-1 8.1.8 8.1 2.7 0 1.1-1.8 1.9-2.5 2.4zm36.7-17.4c-2.2 2.3-6.5 2.6-9.3 3.7-6.4 2.2-14.6 9.2-21.5 8.9-.7 0-5.9-1.3-5.6-2.3.5-1.7 6.6-2.9 8.3-3.5 8.4-3 17-8.8 25.8-10.3 2.1-.5 4.2 1.5 2.3 3.5zm15.5-33.8c1.7-.6 3.4 4.1 4 5.2 3 5.5 6.8 10.5 10.4 15.6.7.9 3.9 4.4 1.9 5.2-5.9 2.6-14.9 1.2-21.3 3.1-1.9.5-5.4 3.5-7.2 2-2.1-1.6-1.6-5.1-.8-7.1 2.4-5.8 6.9-10.7 9.3-16.7.7-1.8 1.6-6.4 3.7-7.3zm-48.8-2.3c1.1-1.6 9.8-.5 11.6-.5 11.3 0 22.5-.8 33.8-1.9 3.6-.3 1.3 4.3.5 6.2-2.6 6.2-5.2 12.1-8.9 17.7-1 1.6-2.3 4.9-4.5 5.1-2.7.1-5.6-3.4-7.5-5.1-5.9-5.3-12.2-10.1-18.3-15-.7-.8-7.5-5.4-6.7-6.5zm-4.2.2c2-.7 6.1 4.3 7.7 5.4 7.3 5.2 14.4 11.3 21 17.5 1.4 1.2 5.8 3.8 5.8 5.9 0 2-6.4 3.5-8 4.2-8.4 3.9-16.3 8.3-25.3 10.7-1.4.4-4.2 1.5-5.4.2-1.6-1.8 0-6.5.4-8.7 1.1-7.6 2.8-15.4 2.8-23.1.2-2-1.5-11.2 1-12.1zm-3 10.5c0 9-1.4 18-3.1 26.9-.4 1.9 0 7.5-2 8.5-2.2 1-6.2-2.5-7.8-3.6-6.4-3.9-13.4-6.9-19.9-10.8-1.6-1-6.2-2.7-6.4-4.8-.2-2.7 5.8-5.6 7.5-7 5.9-4.8 13.1-8.2 19.3-12.5 3.1-2.2 6.4-5.7 10.1-6.8 2.5-.8 2.3 8.4 2.3 10.1zm-40.8 2.2c.5-8.5 1-17.2 1.1-25.8 0-2-.7-8.2 1.1-9.6 1.8-1.5 6.6 2.9 8.1 3.9 7 4.5 13.6 9.4 21 13.3 1.5.8 7.2 2.2 5.2 4.5-7.2 7.9-18.5 12.6-27.2 18.6-1.4 1.1-6.8 6.3-8.6 5.2-1.7-1-.8-8.5-.7-10.1zM86 90.3c2.5-8 6-15.6 8.5-23.6.7-2.2 1.5-7.3 3.7-8.5 2.1-1.1 6 2.1 7.8 3.2 7 3.8 14 7.7 21 11.6 1.3.7 8.2 3.6 5.7 5.6-2.9 2.2-8.2 2.9-11.6 4.5-8.4 3.7-16.7 7.9-24.7 12.2-2.2 1.1-9.7 6.1-12 4.7-2.1-1.4 1.1-8 1.6-9.7zm-3 15.1c1.9-1 5 1 6.8 1.7 5.7 2.1 11.5 4 17.2 6.3 1.6.7 6.3 1.4 5.9 3.8-.7 5.4-6.1 8.6-10.1 11.4-10 7.1-21.1 17.2-32.9 21.1-2.4.8.9-7.7 1.3-9 2.8-8.5 5.8-17.1 8-25.8.8-2.4 1.2-8.1 3.8-9.5zm-21.9 36c-4.9-7.5-9.7-15.3-15.1-22.6-1-1.4-5.8-6.3-4.9-8.1 1.1-2.2 7-1.8 9-2 9-1.1 17.9-2.5 26.9-3.7 5.2-.7 1.6 5.5.9 8.4-2 8.5-4.8 17-7.8 25.3-.7 1.6-1.8 8.8-3.6 9.2-2 .3-4.6-5.2-5.4-6.5zm-9.7 64.5c3.8-11.5 6.8-23.6 9.9-35.5.7-2.6 1.8-11 4.3-12.3 2.1-1.1 5.4 3.4 6.6 4.7 4.8 4.8 9.3 10 14 15 1.6 1.6 5 3.9 4.8 6.5-.3 3.5-6.6 6.8-9.1 8.8-6.4 5.4-13.4 10.1-19.9 15.5-3.6 3.1-8.3 7.9-12.9 9.4-2.4.9 1.7-10.5 2.3-12.1zm42.4 33.9c-1.9.8-6.9-2.2-8.8-2.8-8.7-3.2-17.2-7.5-25.8-10.9-1.9-.8-8.9-2.4-9.3-4.6-.4-2.1 7.5-6.6 9-7.9 6.8-5.8 14.5-10.4 21.3-16.3 2.7-2.4 6.9-7.3 10.6-8 2-.4.4 7.8.2 9-1.2 9.1-1.2 21.2.5 30.3.2 1.5 3.8 10.6 2.3 11.2zm.3-68.3c-.2 1.4-.5 9.5-2.3 9.2-2.1-.3-3.9-3.5-5.2-4.9-4.6-4.8-9.3-9.6-13.9-14.5-1.4-1.5-5.3-4.3-4.3-6.8.8-1.9 3.6-3.3 5.2-4.5 5.1-3.6 11-5.9 16.1-9.4 3.7-2.5 7.1-5.4 10.7-8 1.1-.8 3-2.7 4.5-2.4.9.2-3 8.9-3.4 10.1-3.6 10.1-5.6 20.6-7.4 31.2zM389.8 365c7.1 4.1 14 8.1 20.4 13.3 1.5 1.2 8 5.3 5.2 7.5-6.5 4.9-17.9 6.2-25.6 8.1-1.8.4-7 2.7-8.6 1.3-1.3-1.2-.5-5.4-.5-7-.1-6.4-.5-12.9.2-19.4.2-1.5-.2-5.3 1.2-6.3 1.9-1.4 6.1 1.5 7.7 2.5zm-4.3-57.3c4.8-1.1 3.2 5.5 2.7 8.3-1.2 9.4-4 18.6-5.8 27.9-.4 1.9-1.4 9.9-3.5 10.4-2.2.5-6.6-3.3-8.4-4.4-7-4.2-14-7.9-20.4-12.9-2.5-2-6.6-5.2-4-8.9 1.7-2.4 5.9 1.9 7.2 2.9.3.2 2.1 1.5 2.4.7.8-2-6.4-3.4-4.9-6.3 1.1-2.2 4.2-1.3 5.8-2.7 7.1-5.6 19.8-12.9 28.9-15zm-8.8 88.4c-2.8.6-7.6-2.9-10-4.1-6.1-3.1-15.7-4.9-20.8-9.3-2-1.7-3.8-8.4-2.5-10.7 3.1-5.3 3.9 6.1 6.1 5.3 1-.3-1.7-6.2-.2-7.6 1.7-1.5 5.6-1.6 7.7-2.2 6.1-1.6 14.1-6.3 20.3-6.5 2.1-.1 1.2 6.2 1.2 7.5 0 7 0 14-.2 21 0 1.7.4 6.2-1.6 6.6zm-40.6-34.7c2-1.2 4.1 5.2 2.7 6.1-2.2 1.2-4.6-5-2.7-6.1zm0-9.2c1.6-1 3.1 5.3 1.6 6.1-1.9 1-3.1-5.2-1.6-6.1zm3.1 20.4c2.3.3 3.2 7.8 2.5 7.6-3-.6-8.1-8.3-2.5-7.6zm6-33.8c1.5-1.1 6.3 2.5 7.5 3.3 6.4 3.8 12.9 7.3 19.3 11.1 1.5.9 7 3.3 4.6 5.5-4.4 4.3-15.9 6.3-21.8 7.7-1.8.4-5.5 2-7.1.4s-3.2-10.3-3-12.5c.1-1.2 1.4-1.8 1.4-2.9-.1-2.3-3.8-5.4-1.7-8 1.1-1.3 3.3 2.3 4.2 1.2 1.2-1.4-5.1-4.5-3.4-5.8zm-.8 29.7c-3.1 2.1-3.3-6.6-3.7-8.4-.2-.7-.7-2.5.2-3.1 1.1-.7 2.4 1.3 2.7 2 .8 1.8 2.7 8.3.8 9.5zm-2.4-15c-1.4.8-3.4-4.3-2.2-5 1.6-1 3.8 4.1 2.2 5zm-4 28.4c4.9-2.3 5.2 7 7.2 7.5 1.5.4.4-3.7 2.7-3.4 7.3 1 14.5 6.3 21 9.3 1.2.6 6.3 2 6.3 3.6 0 2.1-5.4 4-6.9 4.9-6.8 4.2-14.4 11-22 13.4-3.8 1.2-3.8-3.5-4.6-6-2.3-7.2-3.1-13.2-3.3-20.4-.1-1.5-2-8.1-.4-8.9zm10.4-62.9c3.6-.9 3.2 3.8 0 4.6-3.1.7-2.1-4 0-4.6zm-11.6-14.2c-2.4-3.2-2.9-10-3.6-14-.3-1.6-2.9-7.4-1.5-8.6 1.5-1.4 7.2 2.9 8.6 3.6 3.8 2 9.5 3.1 12.6 6 3.2 3 4.9 9.4 8.9 12 1.9 1.2-.7-3.5-1.1-3.9-.5-.9-1.1-1.7-1.8-2.5-2.2-2.5-2.5-4.7 1.3-2.3 2.3 1.4 3.6 4.2 5.8 5.5 1.3.8 1.3-1.6 2.8-1.4 2.7.4 5.6 2 8.1 3.1 1.3.6 6.6 2.4 5.1 4.4-1.5 2.1-5.5 3.1-7.8 4.1-5.9 2.7-12 7.5-18.3 9.1-2 .5-4.1-.9-4.9-2.8-2.1-5.6 7.1-1.4 7.1-.7 0-1.1-1.8-2.1-2.3-3-2.1-3.6-6.3-6.4-9.6-9.5-.7-.6-3-3.6-4-3.2-1.1.4 1.1 2.6 1.3 2.9 2.1 2 5.9 4.2 7 7.1.5 1.3-.8 3.3-2.3 3.3-1.9 0-4.4-3.2-5.8-4.3-1.6-1.7-4.2-3.1-5.6-4.9zm1.6 4.4c.9-.7 2.8 1.2 3.4 1.7 2.3 2.1 7.3 6.1 3 9.1-3.6 2.6-8.6-8.9-6.4-10.8zm1.2 29.2c2.6-.6 3.4 6.8 1.6 7.2-2.5.6-3.6-6.7-1.6-7.2zm-9.1-13.7c2-1.1 9.8 5.3 8.4 6.4-2.1 1.5-9.9-5.5-8.4-6.4zm-2.1 4.8c2.8-1.9 12 7.8 7.2 10.6-2 1.2-11.6-7.6-7.2-10.6zm-1.5 7.1c2.1-1.1 10.5 7.2 7 9.6-.7.6-1.7-.2-2.2-.9-.7-1.1-.3-2.7-1.4-3.6-.5-.4-8.1-2.5-3.4-5.1zm5.9 17.5c-2.4 1.7-5.1-4.7-2.7-6.3 2.4-1.5 4.9 4.8 2.7 6.3zm0 8.5c-2.2 1.3-8.6-5.7-4.6-7.8 2.9-1.5 7.3 6.3 4.6 7.8zm-15.6-1.6c-3.6 1.5-5.5-6.8-1.4-8.2 4.1-1.5 4.2 7.1 1.4 8.2zm3.5-9.1c-2 .8-4.3-2.9-2.1-4 2.3-1.2 4.4 3.1 2.1 4zm1.8-5.6c-2.8.8-2.1-4.1-.2-4.8 1.7-.7 1.9 4.3.2 4.8zm2.8 14.5c1-.6 2.5.8 3.2 1.3 1.9 1.4 8.3 7 4.5 9.9-4.3 3.2-11.8-8.4-7.7-11.2zm-16.7 67c-3.6-7.8-6.5-16.1-10.4-23.6-1.1-2-4.9-7.5-3.9-9.9.7-1.5 5.9-.9 7.3-.9 7.2 0 14.4.1 21.5-.8 6.3-.8 6 4.5 5.9 9.4-.2 10.2-3.3 17.1-8.1 25.8-1.1 2-4.1 9-6.7 9-2.2.1-4.7-7.2-5.6-9zm-5.9 26.6c1-2 4.3-3.6 6-5 4.6-4.1 9.1-8.4 13.1-13.1 7.6-9.1 11.8-24.8 11.9-36.4 0-8.1-4.1-14.2-7-21.5-.4-1.1-2.5-6.4-1.4-7.3.9-.6 5 5.8 5.3 6.8 2.8 8.7 4.9 17.5 7 26.3 1 4.1 3.7 10.4 2.8 14.5-.7 3.3-4.7 5.9-7 8.1-4.6 4.5-9.3 9.2-13 14.5-2.9 4-7.6 14.7-12.3 16.5-1.6.7-6.5-1.1-5.4-3.4zM271.6 480c.5-3.7 1.1-10.7 3.2-13.8 1.4-1.8 4.4-2.2 6.4-2.8 5.4-1.6 10.7-4.7 16.1-5.9 2-.5 8.6 2 6.6 4.7-1.6 2.3-5.3 3.9-7.7 5.4-5.4 3.3-10.6 6.7-15.6 10.6-2.2 1.7-5.5 5.7-8.4 6.2-1.8.1-.8-3.5-.6-4.4zm57.8 16.5c-3.7 1.3-11.1-.9-14.8-1.6-9.3-1.9-18.7-3.2-27.9-5-2.2-.4-11.9-.5-12.7-2.7-.8-2.2 5.4-5.8 6.8-6.8 5.8-4.3 11.6-8.3 17.7-12.2 2.4-1.5 5.3-4.2 8.1-4.9 3.1-.9 5 3.3 6.2 5.4 4.1 6.8 8.6 13.4 13.1 19.9.7 1.1 5.6 7.2 3.5 7.9zm25.3-31c-5.1 6.8-10.1 13.4-15 20.4-1.4 2-3.8 8.2-6.5 8.6-2.3.4-4.7-4.9-5.7-6.5-4-6.4-8.5-12.4-12.6-18.8-1-1.5-4.1-5.3-3.1-7.2 1.4-2.3 8.4-2.3 10.7-2.7 11.2-1.7 22.6-1.5 33.9-2.8 1.1-.1 3.6-.4 3.5 1.5-.1 2.7-3.7 5.5-5.2 7.5zm7-11.5c-2.8 1.1-7 .5-10 .8-9.2.9-18.3 1.1-27.5 2.1-2.1.1-10.3 2.7-11.7 1.1-1.1-1.6 4.2-7.8 5.2-9.1 5.3-7.3 10.9-14.1 17.4-20.4 1.6-1.6 4.6-5.7 7-6.1 2.8-.4 4 3.7 5.1 5.5 3.5 6.4 7.6 12.4 11.2 18.8.5 1.1 5.3 6.5 3.3 7.3zm4.1-2.9c-2.2.8-5.1-4-5.9-5.5-2.9-4.7-5.1-10-8.3-14.5-1.8-2.6-5.1-6.8-5-10.1.1-2.4 4.8-4.3 6.6-5.4 6.4-4.2 14.6-11.8 22.4-13.3 2.6-.5.1 9.3-.1 10.6-1.9 9.8-3.6 19.4-6.3 29-.4 1.6-1.7 8.6-3.4 9.2zm44.2-12.7c-2.5 1.8-7 2.5-10 3.5-7 2.1-14 4.3-21 6.6-1.6.5-8.3 3.7-9.7 2.5-1.4-1.5 1.9-9 2.3-10.7 2.5-9.6 3.9-19.3 6.2-29 .4-1.7.3-8.2 2.1-9 1.9-.7 6.3 5.5 7.4 6.8 6.3 7.7 11.5 15.9 19 22.6 1.4 1 6.3 4.9 3.7 6.7zm4.5-12.7c-.2 1.3 0 7.9-1.5 8.3-1.7.4-6.7-5.3-8.1-6.4-6.6-5.8-11.7-13.9-17.4-20.6-1.5-1.8-5.7-5.4-5.5-7.9.1-2.1 5.8-2.3 7.4-2.8 5.9-1.6 11.8-3.1 17.7-4.9 2.4-.8 5.9-2.9 8.4-2.7 2.5 0 .7 8.1.7 9.7-.4 9-.5 18.2-1.7 27.3zm35-8.4c-9.9 5.2-20.3 12.4-30.6 16.3-4.5 1.7-2.3-5.5-1.9-7.9 1.3-9.4.8-19 1.8-28.5.2-2-.5-9 1.6-10.1 1.9-1 7.1 3 8.7 4 7.5 4.9 15.2 9.7 22.6 14.9 1.4 1 6.9 3.9 6.9 5.8-.1 2.8-7.2 4.5-9.1 5.5z" class="st0"/>
  <path d="M189 172.6c-5.1-1.1-9.5 11.6-10.7 15-4.9 14.6-10.3 29.7-6.5 45.1 1.1 4.6 1.4 13.2 7.8 13.6 2.4.2.1-12.6-.5-14.7-3.6-15.6-2.5-30.3 2.4-45.7 1.4-4.3 4-7.1 6.8-10.5.3-.4 2-2.5.7-2.8m67.5-3.6c-4.9.7-9.2 1.6-13.4 4.4-.4.3-4.4 3.3-2.9 3.8 1.3.5 4-1.9 5.1-2.6 3.5-2.3 7.2-3.8 11.3-4.2 1 0 4.1 0 4.6-1.1.3-.7-4.3-.4-4.7-.3m44.5-5.4c-1.7.7-2.9 5.2-3.7 6.8-3.6 7.2-3.2 14.6-6.5 22-.5 1.2-4.6 8.2-4.4 8.2 5.4 1.4 8.6-8.2 13.1-8.4 4.2-.2 2 8.8 5.4 9.5 1.4.4 1-2.2.9-2.9-.3-1.3-3.8-7.9-1.4-8 2.1-.1 3.4 9.1 4.9 8 3-2.1-4.8-9.3-.8-11.3 2-1 2.5 9.7 4.8 8.9 2.6-.8-4-10.6-2.2-12.2.8-.7 1.5 1.8 1.6 2.1.2 1.1 2.9 11.3 4.5 9.7.9-.8-.2-3-.6-3.8-1.3-2.9-2.4-5.9-2.9-9.1-.2-1.1.7-2.9.2-3.7-.4-.7-2.9-4.8-3.4-4.3-1.3 1.1 1 5.3-.2 5.7-1.2.5-2.3-5.5-3.2-4.3-1.5 2.3 3 7.4-.2 8.8-2.1.9-2-6.1-3.8-4.8-1.3.9 2.4 7.6 0 7.6s-1.7-9-4-7.9c-1.2.6.8 6 .8 7.2 0 1.5-7.1 8.8-8.7 8.7-1.1 0 2.4-6.5 2.7-7.1 1.8-4 1.1-7.2 1.9-11.3.6-2.9 2.5-5.3 3.4-8.1.4-.3 2.4-6.2 1.8-6m-27.8 110c-.6.9 2.1 2.1 2.7 2.4 1.6 1 9.4 7.3 11.2 5.7.5-.4-2.6-1.9-2.9-2.2-1.2-.8-9.7-7.8-11-5.9m-1.7 4.7l2.2 2.3 10.9 5-2.3-1.8-10.8-5.5m-4.5 3.3l9.4 6.2 3 1-2.5-2.2-9.9-5m80.8 14.6l2.2 3.7 8.1 7.2 3.2 2.2-1.6-3.5-8.6-8-3.3-1.6m-150.6 50.7l.4.1-.4-.1m16.8 40.3l-3.4 4.1-8.6 12.4-1.2 5.2 3.3-4.2 9.1-12.9.8-4.6m6.1 14.8l-8.4 8.6-.9 3.3 9.3-11.9m-4.2-4.5l-8.2 10.4-.9 3.7 8.1-11.2 1-2.9" class="st0"/>
</svg>
