<svg xmlns="http://www.w3.org/2000/svg" id="Layer_1" viewBox="0 0 500 500" preserveAspectRatio="xMinYMin meet">
  <style>
    .st0{fill:#FFFFFF;}
  </style>
  <path d="M486.4 195.1c-11.3 2.7-6.8 21.6 5.3 18.7 11.6-2.9 7.2-21.7-5.3-18.7" class="st0"/>
  <path d="M463.5 198.6c-11.8 1.3-9.1 21 3.5 19.2 12.6-1.7 9.1-20.5-3.5-19.2m11.8 19.3c-13 2.8-11.8 25.2 2.3 22 11.9-2.7 11-24.9-2.3-22m9.9 41.3l.6.5-.6-.5m-359.8-17c8.3-11.3 15.4-24.3 22.6-36.1.9-1.4.4-3.3 1.1-4.9 1.6-3.5 4.2-6.9 6.5-10 5.7-7.8 13.7-14.3 21.1-20.5 10.5-8.8 22.8-15 34-23.1 2.7-2 5.9-3.4 8.8-5.2.3-.2 2.4-1.2 2.1-1.7-.5-.8-3.9 1.1-4.5 1.4-4.9 2.1-9.5 4.5-14.6 5.9-21.8 5.3-46 9.7-65 22.4-5.6 3.7-9.7 7.9-14.4 12.8-.7.7-3.8 4.9-4.9 4.1-1-.7.6-7.5.6-8.8 0-9.3-.2-18.9.4-28.1.6-10-1.9-20.5-1.6-30.4.6-19.1 4.1-41.4 14.5-57.9 2-3.2 5.3-5.6 7.7-8.5.8-1 2.8-6.1-.4-4.3-5 2.8-10.1 9.7-13.8 14-4.6 5.1-9.5 10-13.4 15.8-7.8 11.5-11.2 25.2-15.9 38-9.1 24.6-20.8 47.7-31.7 71.4-2.8 6-5 12.4-6.8 18.7-.8 2.7-.8 6.9-2.8 9.1-.9 1.1-1.8-.8-2.2-1.5-2.2-3.4-4.9-6.2-8.3-8.6-10.7-7.4-22-12.5-33.4-18.8-1.6-.9-9.5-6.3-9.5-6.8-.5 2.4 2 5.8 2.9 7.9 1.8 4.3 2.4 9 3.5 13.5 3.4 14.8 5.7 29.9 14.5 42.7 9.8 14.4 24.5 25 35.7 38.2 7.5 8.8 13.3 16.3 12.9 28-.1 1.8.7 4.8 3.1 3.9 3.6-1.4 3.5-7.4 4.9-10.4 4.4-9.9 9.3-20.3 15.4-29.2 8.6-12.4 22.1-21 30.9-33zm1.7-7c-3.3 4-10.2 5.5-14.8 7.8-1.5.8-3.8 2.5-5.6 2.4-1.9-.2 3.6-9.6 4.4-10.7 3.2-4.2 14.6-8.6 19.8-9 2.8-.3-2.9 8.3-3.8 9.5zm-46 1.1c-2.1-.4-.5-10.1.2-11.5 1.2-2.7 13.2-8.6 16.3-8.4 2.4 0-1.6 6-2 7-2.2 4.8-7.8 14.1-14.5 12.9zm6.9 4.1c-1 3-3.4 14.3-7.3 14.4-2.9.1-1.3-5.2-1.2-6.8.2-5.3 1-10.2 7.5-11.2 2.5-.4 1.4 2.5 1 3.6zm25.9-110.6c2.2-.2 1.4 8.4 1.4 10 0 5.9-6.5 13.9-13.3 14.2-2.7.1-.1-7 .3-8.3 1.7-6.1 3.4-15.3 11.6-15.9zm-7.4-5.3c1-4.8 2.6-11 8.1-12.7 2.4-.7 1.3 6.6 1.3 8-.1 5-3.8 10.1-9.2 11.1-2 .3-.3-5.3-.2-6.4zM114 150c1.7 0 1.6 2 1.5 3.2-.3 3.8.9 9.4-.7 12.8-2.1 4.8-11 6.4-15.4 8.3-1.8.7-3.8 2.6-5.7 2.5-3-.1 1.8-8.8 2.3-10.1 2.6-6.2 10.2-16.5 18-16.7zm-5.7 23.3c1.7-.7 3.8-2.3 5.7-2.5 1.9-.2 1 3.1.8 4.1-1 4.1-1.3 9-3.3 12.7-1 1.9-3.8 2.9-5.5 3.8-4.7 2.3-13.9 8.7-19.1 7.7-1.8-.2-.8-2.6-.5-3.7 1.1-3.7 1.6-8.2 3.5-11.7 2.9-5.7 12.8-8.2 18.4-10.4zM90.1 201c5.4-2.5 12.3-6.6 18.1-8 3.6-.9-.3 9.2-1.1 10.5-1.4 2.3-2.9 6-5 7.8-2.6 2.2-7.3 2.9-10.2 4.7-2.5 1.5-6.1 4.7-9.2 4.6-1.7 0-1.4-2.4-1.4-3.6.3-3.4 1.2-9.9 2.9-12.7 1.2-1.9 4-2.5 5.9-3.3zm2.5 33c.7-1.8 1.3-5.3 3.1-6.3 2-1.2 2.9 6.9 3.1 8.1 1.3 7.6 3 11.7-.9 18.7-.8 1.5-2.1 4.4-3.8 5.1-1.9.8-3.4-7.2-3.7-8.6-1.5-7.1-.3-10.4 2.2-17zm7.4-.6c-1.2-8.5-1.4-11.7 2.9-19.3.9-1.6 1.9-4.9 3.6-5.7 1.4-.6 2.3 8 2.3 9.2.8 8.2 2.4 12.3-1.5 19.9-.8 1.6-1.8 4.3-3.4 5.2-2.8 1.4-3.7-7.8-3.9-9.3zm44.7-29c-2.5 2.5-14 7.4-17.6 7-2.7-.2 3.3-7.6 4.2-8.4 2.5-2.7 11.1-5.4 14.9-5.5 3.5-.1-.3 5.8-1.5 6.9zm20.9-27.1c-2.9 2.5-6.4 4.7-10.5 4.4-3.5-.2.8-3.7 1.8-4.5 3.5-2.9 6-4 10.5-4.4 4.3-.4-.6 3.3-1.8 4.5zm20.3-16.5c-.5 1.4-3.4 2.5-4.5 3.3-3.8 2.8-7 6.7-12.3 6-3.3-.6 1.4-3.3 2.3-3.9 3.8-2.3 8.5-4.9 12.9-5.8.2.1 1.8-.2 1.6.4zm-19.6-.8l6.9-2 15.6-3.6-4.5 3.5-14.6 6.9-6.5 3.5 3.1-8.3zm-16.5 10.8c1.4-5.4 5.2-8.8 11-9 2.7-.1 0 4.9-.5 6.1-1.3 4.1-5.5 10.7-10.5 11.2-2.1.2-.2-7.2 0-8.3zm7 14.4c.3 2.6-4.9 7.6-7 8.5-1.4.7-11.8 4.6-12.6 3.4-.6-1 1.2-2.9 1.7-3.5 2.3-2.9 5.7-7 9.2-8.8 1.1-.5 8.4-1.4 8.7.4zm-23.5.8c1.1-7.8 2.9-17.3 13.2-18.1 2.8-.2.7 6.2.4 7.6-1.5 7.3-4.1 10.2-8.8 15.8-.9 1.1-3.1 4.9-5 4.7-1.8-.4 0-8.6.2-10zm-7-3.5c1-1.1 2.4-3.4 4-3.7 2.5-.4.9 7.2.8 8.4-.6 7.6.5 12-4.2 18.1-.9 1.2-2.3 4-3.8 4.3-2.1.4-1.5-7.8-1.6-9-.1-7.8-.7-12 4.8-18.1zm8.9 28.7c1.7-.7 4.3-2.3 6.2-2.1 2.8.4-2.8 8.1-3.5 9.2-3.3 5.1-10.8 6.1-16.2 8.2-1.3.5-4.6 2.6-6 1.9-1.5-.7 3.6-7.4 4.2-8.3 3.6-5.1 9.9-6.7 15.3-8.9zm-15.8-9.4c.3 6.5 2.8 20-5.9 23.2-2.1.8-2.7-7.8-2.9-9.2-.8-7-2.2-19.3 6.9-22.6 2.1-.7 1.8 7.4 1.9 8.6zM117.6 97c-.5 4-.6 13.2-6.2 13.7-1.6.1-.3-3.1-.1-3.8 1.2-3.5 3.4-6.9 4.4-10.5.3-1.1.5-3.9 1.9-4.3 1.3-.3.1 4.4 0 4.9zm4.1-26.6L125 67l-.6 4.9-7 14-2.9 4.9-1.9-7.8 9.1-12.6zm-12.1 18.5c1.7-1 2.4 4.7 2.6 5.8.5 2.6-2.3 14.3-4.9 15.6-1.7.8-3.1-5.2-3.3-6.2-.7-3.9 2.1-13.1 5.6-15.2zm-9.8 24.5c.4-1.2.8-3.9 2.2-4.5 1.7-.7 2.9 3.9 3.4 4.9 1.6 3.4-.7 9.5-1.7 13-.3 1-.8 3.3-2 3.6-1.6.3-2.7-3.7-3.2-4.7-2-4.9-.4-7.5 1.3-12.3zm-7 18.2c.5-1.3 1.5-4.5 2.9-5.1 1.9-.8 3.3 5.1 3.9 6.2 2.9 5.9 1.2 10.6-.4 17-.3 1.2-.8 5.1-2.1 5.5-1.6.4-3.8-6.1-4.2-7.2-2.8-6.9-3-9.4-.1-16.4zm-8 19.3c.6-1.6 1.1-5 3-5.7 2-.8 4.2 6 4.8 7.4.9 2 2.7 3.9 3.2 6 .7 3.4-2.3 8.5-3.6 11.6-.5 1.3-1.5 5.7-3.1 6.1-1.7.4-3.8-6-4.4-7.2-3.7-7.4-2.8-11 .1-18.2zM76 170.2c.6-1.5 1.6-4.9 3.2-5.7 1.5-.7 3.7 5.8 4.3 6.8 3.7 7.7 3.9 10.5 1.8 18.7-.3 1.3-1.1 6.1-2.6 6.5-2.2.5-5-6.2-5.8-7.7-4.2-7.7-4.4-10.6-.9-18.6zm-20.6 82.1c.6-.2 2.2 4.5 2.4 5.1 1.7 5.3 3.7 10.2 5.9 15.2.2.6 2.1 4.8 1.6 5.1-.8.5-3.8-4.5-4.2-5.1-3.3-4.5-9.5-12.3-6.6-17.8.4-.5.4-2.2.9-2.5zm-5.8-24.1c.1-1.1.1-4.6 1.3-5.1 1.9-.8 3.9 3.1 4 4.5.1 2-.9 3.9-.9 5.9-.2 3.8 3.3 14.1-1.5 16.3-2.3 1.1-4.1-2.8-4.2-4.6-.7-5.2.4-11.9 1.3-17zm-11.3-21c2-.9 4.9 2.6 6 3.9 5.6 6.5 3.5 12.8 2.4 20.5-.2 1.2 0 6.9-1.1 7.2-1.5.4-4.1-5.6-4.7-6.7-4.1-6.4-3.6-10.3-4.2-17.6-.1-1.8-.7-6.2 1.6-7.3zm-10.8-7.7c1.4-1.1 4.2 1.7 5.3 2.4 4.1 3.1 1.8 8.3 1.8 12.8 0 .8.5 4.6-.6 4.9-1.2.4-3.2-3.5-3.7-4.3-1.8-2.7-6.5-12.9-2.8-15.8zM13 192c.8-.8 3.8 1 4.5 1.3 2.9 1.2 11.5 7.5 6.3 11.5-1.5 1.2-8.4-8.1-9.4-9.4-.4-.6-2.2-2.6-1.4-3.4zm-4.3.8c1.1-.3 2.8 2 3.3 2.6 2.5 2.8 5.1 5.5 7.4 8.4.3.4 2.9 3.5 1.6 3.8-4.5 1-11-4.8-11.9-8.7.1-.8-1.3-5.8-.4-6.1zm4 21.2c-.9-1.1-2.2-5-1-6.3 1.2-1.2 4 .2 5.3.7 4.8 1.9 9 3.8 12 8.1.6.9 3 3.5 2.3 4.7-.8 1.4-4.7-.8-5.6-1.2-3.7-1.6-10.5-2.7-13-6zm3.6 13c-.6-1.4-3.2-6.8-1.7-8.1 1.4-1.2 5.7 1.1 7 1.6 6.6 2.8 13 4.1 16.7 10.5.7 1.3 4.4 6.1 3.1 7.6-1.1 1.2-5.6-1-6.9-1.4-6.9-1.7-15.4-3-18.2-10.2zm8.1 16.4c-.7-1.1-4.5-5.7-3.3-7 1.4-1.4 6.1 1.1 7.6 1.5 6.6 2 14.8 2.3 18 9 .6 1.2 2.9 4.5 1.8 5.9-1.2 1.3-5.5-.3-6.9-.6-6.6-1.8-13.3-2.9-17.2-8.8zm12.3 14.5c-.7-.8-4.1-3.8-3.2-5.1.7-.9 5.3.7 6.3.9 6.4 1.6 10.5 1.9 13.2 8.3.4 1 2.2 3.6 1.3 4.7-.8.9-3.6-.3-4.6-.5-5.8-1.3-8.9-4-13-8.3zm14.2 14.2c-.6-.6-2.9-2.4-2.2-3.5.7-.9 3.1.2 3.9.5 4.4 1.3 6.1 3.2 8.7 7 .4.6 2.4 3 1.6 3.9-2.6 2.9-10.7-6.5-12-7.9zM72 295.2c-.8.6-2.2-1.7-2.5-2.1-1-1.2-7.3-8.2-6.6-9.4.7-1.2 3.2.4 3.8.9 1.1 1 7.3 9.1 5.3 10.6zm2.2-11.2c-.9.4-1.8-2-2.1-2.5-.7-1.2-6.3-9.2-4.7-10.4.8-.6 2.7 1.4 3.2 1.9 1.2 1.1 7.7 9.6 3.6 11zm1.4-18.4c-.2 1.5.4 5.4-1.2 6.3-1.9 1.1-4.9-2.8-6-4-5.4-5.6-8.8-12.8-10.3-20.5-.3-1.4-1.9-7.6-.3-8.6 1.4-.8 5.2 5.3 6 6.2 5.2 6.1 12.8 12.2 11.8 20.6zm1.5-18.7c-.1 1.6.5 6.7-1.4 7.4-2.2.9-5.2-4.3-6.2-5.6-4.9-6.2-13-13.1-12.2-21.7.1-1.5-.8-9.2 1-9.6 2-.4 5.2 5.3 6.3 6.6 5.5 6.6 13.2 13.7 12.5 22.9zm-.2-12.5c-2.1.8-5-4.1-6.1-5.4-4.8-5.7-12.9-13.9-10.7-21.9.4-1.4.9-5.7 2.8-6.1 2.3-.4 4.1 4 5 5.5 3.7 5.7 10.4 12.8 10 19.9-.1 1.5.7 7.3-1 8zm1.5-17c-1.8 1-5.2-6.2-5.9-7.4-4.3-7.3-9.5-11.9-6-20.5.7-1.6 1.9-5 3.7-5.7 2.3-.7 4.8 5.3 5.7 6.8 4.3 7.7 6.2 11.8 4.1 20.5-.4 1.2-.5 5.7-1.6 6.3zm1.3 70.7c-1.4.4-.8-2.5-.7-3.1.3-2.1.6-10.7 2.6-11.5 1.5-.7 2.1 2.9 2.2 3.8.5 2.7-.7 10-4.1 10.8zm6.8-13.3c-1.8.8-2.5-4.6-2.7-5.7-1-5.4-.1-9.4 1.3-14.6.3-1.1.5-4.5 1.9-4.9 1.3-.4 2.5 5.7 2.8 6.7 1.4 5.9 2.1 8.4-.5 14-.6 1.3-1.2 3.9-2.8 4.5zm14.1-10.4c-2.5 2.8-5.1 5.4-7.6 8.2-.3.3-2.4 3-2.9 2.7-.7-.4 1.6-4.5 1.9-5.1 1.5-3.3 5.1-9.6 10-8.8 1.2.3-1.2 2.8-1.4 3zm-2.5-4.6c-1.6-.6 3.1-7.8 3.7-8.8 2.3-3.7 10.5-5.8 14.6-7.6 1.2-.5 3.5-2 4.9-1.7 1.7.3-3.3 4.8-3.7 5.2-4.7 4.7-8 8.2-14 11-1.3.6-4 2.4-5.5 1.9zm390-7.7c-.8-2.2-2.9-12-6.4-10.5-4.9 2.1-3.8 10.1-7.7 13.1-4.4 3.3-10.9 5-15.7 8.2-9.4 6.1-17.9 14.7-25 23.2-19.9 23.9-35.1 52.7-50.3 79.7-6.2 11-11.4 22.7-19.1 32.7-15.9 20.6-36.1 33.3-60.1 42.6-7.9 3.1-13.8 4.5-22.2 3.1-1.2-.2-6.7-1.9-7.4-.5-.3.6 3.5 1.7 3.9 1.7 4.5 1.4 10 3.8 14.6 4 21.1 1 39.8 2.8 60.3-4.5 28.1-10 51.2-35.3 69.4-58.1 5.5-6.9 10.3-14.4 15.3-21.7 1.5-2.3 3.5-7.5 6-8.8 1.8-.9-.9 10.5-1.1 11.7-1.8 10.6-2.3 20.5-8 29.9-.3.5-3.2 6.1-1.3 4.9 3.2-1.9 5.1-6.6 7.4-9.5 5.9-7.1 11.4-13.7 16.3-21.7 15.3-25.4 29-51.5 34.8-80.8 2.2-12.6.8-26.9-3.7-38.7zm-11.5 14.3c1.5 0 0 4.9-.2 5.7-.6 4.2-2.3 12.3-8.4 12.1-1.6 0 .6-3.9.8-4.5 1.1-3 3.9-13.2 7.8-13.3zm-21.9 34.9c.4 9.7-1.5 16.8-3.8 26.3-.4 1.8-.9 8.4-3 9-.9.3-1.1-2-1.2-2.5l-1.2-10c-.8-5.3-4-14.3-2.7-19.3.6-2.6 2.9-5.3 4.3-7.6 1.1-1.8 2.5-5.4 4.7-6.2 2.3-.8 2.9 9 2.9 10.3zm9.5-28.1c1.8-.8 2.4 1 2 2.3-1.7 6.3-4.3 12.4-6.2 18.7-.3 1.4-.9 5.6-2.4 6.2-.6.2-.8-2.4-.9-2.7-.7-3.2-1-6.2-2-9.4-.8-3.2 6.5-13.7 9.5-15.1zM447 356.9c1.2-3.3 6-7.4 9.4-8.2 2.9-.8.1 4.8-.3 5.9-1.4 3.7-4.4 7.7-8.8 8.2-2.3.2-.7-4.9-.3-5.9zm2.1-6.4c-2.3.2-.1-6 .4-7 1.3-3 8.5-8.2 11.6-8.8 2.9-.7 0 5.4-.5 6.4-1.4 3.3-7.7 9.1-11.5 9.4zm2.4-12.3c-1.7-.3.3-7.6.7-8.8.9-3.8 9.6-9.1 13.5-9.4 2.2-.2-1 7-1.2 8.3-.7 2.6-10.3 10.1-13 9.9zm4.4-15.8c-2.8.2-.1-7.4.4-9 1.8-5.7 7.4-13.1 14.1-13.9 2.2-.3.5 9.1.1 10.5-1.4 5.5-8.4 12-14.6 12.4zm5.5-20.5c-2.5.1.7-5.5 1-6.5 1.7-4.5 5.3-11.6 11-12 2.5-.2.3 7.6 0 9-.7 3.6-8.4 9.3-12 9.5zm-13.7-24c5.8-4.6 12.7-13.2 20.4-14.8 2.3-.5-.7 2.6-1.1 3-4.1 4.3-7 9.2-10.5 13.9-1.4 1.9-3 4.6-5.3 5.2-1.3.3-9.9.9-9.6-1.2.5-2 4.4-4.8 6.1-6.1zm-20 21.5c2.9-3.3 5.9-9.3 10.1-11 1.8-.8 9.8-1.3 11 .6 1.3 2.2-5.6 11.6-7.6 12.5-3.6 1.8-8.8 1.6-12.7 2.3-.7.1-3.4 1-3.7-.1-.5-1.4 2.1-3.4 2.9-4.3zm-13.3 17.7c1.9-2.6 3.5-6.4 6-8.4 3.3-2.6 10.9-3.1 15-3.7 6.9-.9-2 12.9-4.3 16.1-2.9 3.9-17 6.9-21.8 6.1-2.7-.4 4.3-8.9 5.1-10.1zM397.8 344c2.2-3.5 4.3-8.4 7.1-11.5 3.4-3.7 16.1-5.6 21.1-5.7 2.7-.1-4.2 12.5-5.6 14.3-3.1 4.1-12.5 4.8-17.2 5.7-1.8.3-4 1.3-5.7 1-2.1-.3-.3-2.8.3-3.8zm-13.4 22.9c2.3-4.3 4.7-10.1 7.8-13.8 3.5-4 17-5.5 22.2-6.3 4.5-.7-3.5 12.3-4.8 14.3-3.8 5.9-11.6 7.1-18 8.8-2.1.5-5.3 1.9-7.4 1.5-2.2-.6-.4-3.5.2-4.5zM374 386.2c1.8-3.3 3.5-8.2 6-10.9 1.3-1.4 3.9-1.3 5.7-1.8 5.1-1.5 10.5-3.6 15.8-4.6 5.1-.9-4.1 11.7-5.6 13.7-3.6 5-15.6 8.1-21.7 6.7-1.7-.2-.7-2.2-.2-3.1zm-24.8 30.9c2.6-2.7 5.1-6.3 8.4-8.3 2.3-1.4 6.1-.9 8.8-1.3.9-.1 5.7-.9 6.1.4.3 1.3-2.4 3.3-3.1 4.1-3.2 3.2-7.6 9.2-12.3 10-1.5.1-9.7.3-10.2-1.6-.3-1.3 1.7-2.6 2.3-3.3zm-6.8 6.5c1.3-.4 10.8.6 10.3 1.7-1.4 3.1-9.7 6.4-12.8 7.3-1.3.4-7.9 1.6-7.9-1.1 0-1.8 8.6-7.3 10.4-7.9zm-25 14.2c.9-1.8 6.2-3.4 8-3.8 1-.2 7.9 0 6.8 2.1-1 1.7-6.8 2.8-8.6 3.2-.7.1-7.1.3-6.2-1.5zm-7.2 2.5c.7-.1 6.2.2 4.9 1.6-1.5 1.6-6.8 2.2-9 2.5-8.2 1.5 1.1-3.5 4.1-4.1zm0 8.5c-.9 0-10.1-.7-9.7-1.4.3-.6 2.7-.7 3.3-.8 3.4-.6 7-2 10.5-2.2 3.4-.2-2.4 4.1-4.1 4.4zm7.3-.2c-2.1-.8 1.3-4.7 2.2-5.4 2.2-2 9.5-4.8 12.6-4.5 2.4.2-1.6 6.3-2.3 7.1-2.4 3.2-8.8 4.3-12.5 2.8zm34.1-7.4c-2.7 4.2-13.1 6.2-18 6.1-3.4-.1 2.2-8.3 3.1-9.6 2.7-3.9 9.2-5.8 13.3-8.2 1.5-.9 3.3-2.6 5.1-2.9 1.9-.3.9 2.6.6 3.4-1.1 3.6-2.2 8-4.1 11.2zm23.9-28.1c-.5 3.5-1.3 7-1.8 10.5-.4 2.4-.3 5.9-1.5 8-2.1 3.6-11.6 8.6-15.7 9.1-3.5.4 1-9.1 1.6-10.7 2.3-7 4.9-9.4 10.1-14.6 1.7-1.7 3.9-4.9 6.3-5.7 1.6-.5 1.1 2.6 1 3.4zm-12.8-8.6c-1.5-1.1 5.9-10.2 7.3-11.1 4.2-2.6 12-2.8 16.8-3.5.6-.1 2.2-.3 2.2.7 0 1.4-1.8 2.8-2.7 3.7-2.7 3-6.4 9-10.6 9.8-2.5.6-10.9 2-13 .4zm29.6 9.8c-1.1 3.7-11.3 13.3-15.2 14-2.7.4-.6-8.6-.2-9.9 2.2-8.7 1.9-13.6 8.4-20.5 1.4-1.5 3.3-4.5 5.5-4.9s1.3 11.3 1.3 13.1c0 2.4.9 5.9.2 8.2zm17.6-17.6c-1.2 3.4-5.4 6.8-7.9 9.4-1.5 1.6-3.9 4.9-6.2 5.3-2.2.3-1.4-9.6-1.4-11.2 0-3.7-.8-8.8.3-12.3 1.1-3.3 4.1-6.4 5.9-9.4 1.1-1.8 3.1-6.8 5.3-7.2 2.2-.5 2.9 10.9 3.1 12.5.5 4 2.4 8.9.9 12.9zm8.5-8.8c-1.2 1.3-2.7 3.9-4.5 4.5-2 .8-2.5-9.9-2.8-11.5-.7-4.1-2.9-11.2-1.8-15.2.8-2.8 3.3-5.6 4.6-8.2.9-1.8 1.9-5.8 3.8-6.9 2.2-1.3 3.3 10.1 3.6 11.6 2.4 10.2 4.5 17.3-2.9 25.7zm13-19.3c-.9 1.8-2.4 5.4-4.2 6.2-1.2.6-2.8-10.2-3.1-11.5-2.2-9.1-3.9-17.3.2-25.8.9-1.8 2.4-6 4.4-6.8 1.8-.8 3.7 10.1 3.9 11.5 1.3 10 3.7 17.3-1.2 26.4zm10.1-20.5c-.8 1.6-2.1 5.4-3.8 6.2-1.2.6-1.5-2.1-1.5-2.7-.4-3.3-1-6.6-1.4-10-.7-5.1-3.9-11.3-3.1-16.4.5-2.9 2.6-6.2 4.1-8.8.8-1.6 2.2-5.3 3.7-6.3 2.3-1.6 3.3 9.7 3.5 11 1.4 10.3 3.3 17.8-1.5 27zm4.5 32.8c-.3 1-1.3 4.6-2.8 4.6s-.2-6.6-.2-7.5c.7-5.9.8-13.2 8.1-14.6 2.6-.6.7 3 .4 4.1-1.6 4.5-3.8 8.9-5.5 13.4zm9.2-11.7c-.5.9-1.9 4.1-3.1 4.1-.6 0 1-4.7 1.3-5.2 2.2-4.3 3.7-9.2 5-14.1.3-1.1.7-5.2 2-5.6 1.3-.5 1.7 6.6 1.8 7.4.4 4.6-4.7 9.6-7 13.4zm9.7-16.2c-1.4.4-1.5-3-1.6-3.7-.5-2.5-2.8-12 1.3-13.1 1.4-.4 1.9 2.9 2.1 3.7.7 3 3.3 12-1.8 13.1zm5.2-11.7c-1.3.4-1.9-3.7-2.1-4.7-1.6-4.9-1.9-6.1-.7-11.4.3-1 .6-4 1.9-4.3 1.6-.4 2.8 3.9 3.2 4.9 1.4 3.4 3.4 14.1-2.3 15.5zm9.1-17.8c-.5 1.2-1.1 3.9-2.5 4.5-2.1.8-3.4-4.4-3.9-5.7-2.5-6.7-.6-9.8.5-16.4.2-1.1-.4-5.7 1.1-6.1 1.9-.4 3.8 5.5 4.3 6.7 2.8 6.6 3.4 10.3.5 17zm6.3-18.1c-.3 1.2-.9 3.9-1.9 4.5-1.4.8-3.7-4.8-4-5.7-2.7-5.6-5.3-8.9-3.8-15.2.3-1.1.5-3.9 1.7-4.5 2.2-1 4.5 3.8 5.3 5.1 3.1 5.3 4.5 9.6 2.7 15.8zm2-14c-1.2 1.2-4.2-4.5-4.7-5.3-3.6-5.4-5.3-7.5-4.1-14 .2-1.2 0-3.2 1.1-4 1.8-1.4 4.4 3.5 5.1 4.6 2.5 3.5 6.8 14.8 2.6 18.7z" class="st0"/>
  <path d="M362.9 366.9c7.7-10.5 10.8-22.4 16.2-33.9 2-4.3 6.6-7 9.2-11.1 4.6-7.6 7.1-16.3 11.7-24 6.3-10.7 13.7-19.7 21.7-29.1 2.1-2.5 9.6-6.4 9.8-9.5.2-6.3-12.1-4.3-13.9-9.2-1-2.7 7.1-9 8.9-10.7.7-.7 3.2-2.9 2.5-4.1-.7-1.1-3.9 2.3-4.4 2.8-2.5 2.1-12.6 7.4-15.7 6.5-8.3-2.5-1.9-9.8 1.7-13.9.5-.6 4.3-4.2 3.3-5.1-1-.8-6.5 4.8-7.5 5.5-8.1 5.2-10.1 5.8-18.1.5-1.2-.8-4-1.7-4.6-3.1-.6-1.2 2.1-2.4 2.8-2.9 3.5-2.4 5.9-5.9 8.8-9 .4-.4 3.3-3.1 2.2-3.9-1.1-.7-5.2 3.4-6.3 3.9-7.8 3.4-14.8 12.9-22.5 2.9-.6-.8 3.7-7.6 4-9.6.1-.5 1.1-2.6.3-2.9-1.1-.4-3.5 3.1-4.3 3.7-5 3.9-8.1 5.7-13.1.7-2.1-2.1.7-6.5 1.7-8.9.3-.6 1.6-2.7 1-3.3-.7-.7-4.4 3.5-4.9 4.1-3.5 3.5-7.5 4.1-11.3.2-1.2-1.3-1.6-8.3-1.5-10.3 0-.8 1.2-3.3.6-3.9-.6-.6-2.2 1.8-2.4 2.2-1.2 1.8-2.6 7.4-5.5 6.2-1.6-.6-5.8-3.4-6.2-5.2-.2-.9 2.5-4.8 1-5.1-2.1-.5-3.1 3.7-5.5 3.3-2-.3-4.1-2.6-5.9-3.7-4.2-2.5-8.4-4.8-12.9-6.8-12.7-5.6-32.4-9.5-46.2-7.7-12.2 1.6-23.2 2.5-34.5 7.9-6.2 2.9-11 7.9-17 11.1-25.2 13.1-49.6 27.7-68.9 49.2-11.5 12.9-19.5 28.1-29.4 42.1-8.9 12.7-15.7 27.3-25.8 39.2-2.9 3.4-11.8 8.9-6.1 14 3.6 3.3 14.3 2.8 19 2.9 1.7 0 6.3-.3 7.5 1.2.5.6-2.4 2-2.8 2.3-3.4 2-6.5 4.3-9.4 7.1-.3.4-3.5 3.7-1.9 4 1.9.5 5.4-3.6 6.8-4.7 3.8-2.9 17.6-8.4 21.6-3.6 1.1 1.3-8.4 9.5-9.7 11.1-.5.6-3.4 3.6-2.2 4.5 1.2.8 6.1-5.2 7-5.9 6.2-4.4 15.1-9.2 21.3-1.8 1.7 2-6.2 7.7-7.4 9.1-.5.6-2.7 3-1.4 3.8.7.5 5.2-4.5 6.2-5.1 5.8-3.2 15.3-5.6 20.1 1 1 1.4-.7 2.8-1.6 3.6-1.9 1.6-8.2 9.2-5.5 12.1 1.2 1.2 3.5-4.5 4.3-5.2 4.4-4.3 13.8-10.2 18.3-2 .6 1.2-1.9 2.8-2.5 3.6-1.6 2.2-8.6 11.8-5.7 14.4.1.1 3.9-6.9 5-7.8 6-5.3 13.8-9 20-1.2 2.1 2.7-6.7 11.5-2.4 14.2.4.3 2.7-5.1 3.5-5.8 4.8-4 9.8-5.3 14.8-.2 1.7 1.7-3.4 7.4-3.9 9.6-.2.7-.8 3.4.3 3.7 1.1.4 1.8-3.1 2.1-3.7.9-2.2 5.7-7.1 8.2-6.1 1.3.5 6.3 3.3 6.4 4.9.2 2-4.8 7.6-1.8 9.7.2.2 3.3-7.2 4.9-7.8 2.2-.8 7.7 1.9 9.8 2.8 3.1 1.4-1.2 4.7 1.4 5.6 1.9.6 2.6-2.4 3.9-3 1.4-.7 3.9.3 5.3.6 18.3 4.4 34.7 9.2 53.8 7.2 22.8-2.4 44.6-15.8 60.9-31.5 4.3-4 9.2-7.8 12.8-12.7zm57-105.4c-.3 2.5-4.3 4.4-5.9 6.1-5.1 5.2-9.8 10.7-14 16.7-4.2 6.1-7.7 12.5-11.6 18.7-.8 1.3-3 5.7-4.8 5.7-1.3 0-.9-3.3-.8-4 .2-4.9-.1-9.7-.5-14.6-.8-9.1-2.3-17.5-4.6-26.3-.6-2.1-3.6-7.4-2.1-9.4 1.9-2.5 8.3-2.3 11.1-2.7 8.8-1.2 17.7.8 25.8 4.4 2 .9 7.7 2.7 7.4 5.4zm-44.7-11.4c-4.8-.9-.7-3.7 1.8-4.2 2.7-.5 6.1-.3 8.8.2.5.1 3.8 1.1 2.1 1.9-2.9 1.2-9.8 2.7-12.7 2.1zm-27-38.3c.7-.9 3.5.8 4.1 1.2 3.4 2 6.4 4.7 10 6.5 13.4 6.9 25.7 15.9 38.6 23.4 3.1 1.8 6 4.1 8.8 6.3.5.4 2.3 1.6 2.1 2.4-.4 1-3.4-.6-3.9-.8-4.1-1.5-8.2-2.6-12.3-3.7-6.3-1.7-12.5-4.1-18.7-6-2.4-.7-5.9-.5-8-1.8-5.1-3.1-9.5-12.6-12.5-17.6-.9-1.6-9.1-8.5-8.2-9.9zM100.5 299c4-8.5 10.1-16.8 15.4-24.6 7.8-11.3 14.5-22.9 23.7-33.2 8.8-9.7 19.2-17.2 29.5-25 5.7-4.3 11.4-7.9 17.6-11.6 2.1-1.2 4.9-3.8 7.4-4 1.9-.1-1.7 4.7-2.1 5.3-3.3 5.5-7.3 8.2-12.3 12.1-22 17.4-43.4 37.2-59.5 60.5-5.3 7.7-10.3 15.8-16.6 22.8-1.5 1.8-4.4 6.3-7.2 6.2-1.1 0 3.6-7.6 4.1-8.5zm239.3-3.5c.8 7.1-3.6 9-4.8 15.2-.5 2.7 1.6 3.7 2.2 6 .5 1.9-.9 5.1-1.7 6.9-1.3 3.1-5.5 2.7-7.2 5.9-2.1 4.1 0 8.3-2.5 12.3-13.6 21.5-36.5 33.1-61.3 35.9-19.6 2.2-42.8-1.7-59.7-11.7-5-2.9-9-7.1-14-10-1.2-.7-5.7-1.9-6.2-3.1s1.5-2.8 2.1-3.5c2.4-2.5 6.4-7.3 9.9-8.2 3.1-.8 6.9 4.8 8.8 6.7 5.5 5.8 15 10.4 22.2 13.8 5.9 2.8 11.8 2.3 18.1 2.3 15.2 0 28.9-2.7 42.1-10.7 15-9.2 28.2-30.4 32.5-47.2 1.4-5.3 1.3-11.5.8-17-.3-2.9-1.5-7.6-.3-10.4 1.7-4 10.9-7.6 15-8 2.4-.2 2.6 1.9 3 3.8 1.4 5.4-2.4 8.1-3.1 12.9-.5 3.4 3.8 4.8 4.1 8.1zm-134.4-63c17.9-3.2 38.3 1.6 56.2 2.1 4.3.1 9.3.9 13.5 1.9.3.1 4.1 1.2 3.4 1.7-.9.7-5.2-.1-6.4-.2-6.1-.4-12-.4-18.1 0-21.7 1.4-41.4 6.9-62.6 10.7-6.2 1.1-12.5 1-18.7 2.5-1 .2-5 2-5.9 1-.9-1.2 6.6-6.6 7.5-7.5 2.6-2.3 5.8-6 8.9-7.5 5.9-2.8 15.6-3.5 22.2-4.7zm-9.3-6.2c5.2-4 11.7-9.2 18.1-10.7 5.2-1.2 10.7 2.6 15.8 3.6 14.9 2.9 29.1 8.5 43.9 12.1 4.4 1.1 8.5 3 12.9 4 .3.1 4.1 1 3.1 1.5-1.5.7-4.5-.5-6-.8-5.5-.9-10.9-2.1-16.4-2.9-17.7-2.5-36-3.7-53.8-3.7-5.7 0-10.7-.8-16.4.5-1 .2-5 1.9-5.9.8-.7-1 4-4 4.7-4.4zm12.8 20.4c15.6-3.3 31.1-3.9 46.8-6 3.3-.4 6.6-.2 9.9-.2.5 0 3.4-.2 3.4.6 0 1.2-4.9 1.7-5.7 1.9-6.1.9-12 2.4-18.1 3.7-26.1 5.6-51.2 11.1-76.1 20.9-7.7 3-14.8 7.2-22.2 10.6-.9.4-6.1 3.7-6.8 3-1-.8 3.2-4.6 3.7-5.1 3.7-3.9 9.5-13.7 14.9-14.9 16.8-3.9 33.2-10.8 50.2-14.5zm-10.3 16.6c4.5-5.2 15.1-5.1 21.4-6.6 19.1-4.5 37.8-9.8 57.4-12.5 7.4-1 12.5 2.8 18.4 6.8 9.7 6.7 19 20.1 20.6 32.2.6 4.3-.6 9.1-.6 13.5 0 3.5 1.2 7.1.6 10.5-5.1 31.9-36.3 48.9-65.4 52-30.9 3.3-63.3-20.6-66.6-52-1.1-10.4 2.5-22.5 7.2-31.6 2.1-4.3 3.9-8.7 7-12.3zm136.6 4.2c-2.2 1.9-12.7 7.7-15.4 7.4-2.2-.4-2.6-4.5-1.2-5.7 3-2.7 11.5-5.7 15.5-6.1 2.7-.3 2.6 3.1 1.1 4.4zm-4.4-13.3c-2.3 2.6-8.7 2.7-11.8 4.3-1.4.6-3 1.9-4.7 1.9-1.9 0-7.8-6-6.1-7.6 3.7-3.5 13-3 17.8-3.3 1.7-.1 6.9 2.5 4.8 4.7zm-12.4-6.4l-12.3 2.7-9.7-7.2 6.8-.9 15.2.2 3.6 3.9-3.6 1.3zm-6.7-11.1c-1.7.6-4.4-.5-6.2-.8-4.7-.7-9.5-1.1-14-2.2-17.2-4.4-34.8-9.5-51.5-15.5-6.5-2.3-16.8-11.4-24.4-7.9-14.6 6.8-27.8 19.6-39.6 30.4-9.8 8.9-19 16.9-27.8 26.7-6.9 7.8-14 17-23 22.3-2.4 1.4-6.9 4.6-9.7 4.6-1.6 0-.1-2.4.2-3 1.8-3.1 3.9-6 6-8.8 8.5-11.1 16.7-22.2 25.9-32.8 10.6-12 24.8-26.1 39-33.6 2.9-1.5 6.8-1.2 10-2.5 4.3-1.7 8-4.6 12.3-6.2 9.1-3.3 18.6-4.2 28.1-5.5 19.3-2.5 40.7 8.1 56.2 18.5 5.3 3.5 10.6 7.5 15.4 11.6.6.6 4.9 4.1 3.1 4.7zM94.2 335.5c-2.5 1-14.8.7-16.4-1.8-1.8-3.1 5.9-9.6 8.2-10.7 8.4-3.6 18.6 8.5 8.2 12.5zm5-11.9c-.9-1.1-4.3-2.8-4.3-4.3-.1-1.7 2.8-3.5 3.9-4.7 4-4.2 7.9-8.5 12.4-12.1 9-7 19.9-11.7 29.8-17.1 14.4-7.9 30-17.4 46.2-21.2.9-.2 3.1-.8 3.4.6.5 2.1-2.1 5.5-2.8 7.3-2.4 5.9-5 11.8-5.9 18.1-.3 2.4.3 7.1-1.4 8.9-4.4 4.6-14.9 7.1-20.7 9.3-13.5 4.7-26.9 10-40.4 14.8-4.6 1.7-11.3 5.7-16.2 5.6-1.7 0-3-4.1-4-5.2zm30.1 17.2c-5.4-2.6-10.7-4.9-16.4-6.9-.8-.3-6.9-1.9-6.2-3.1.7-1.3 3.8-1.8 5.1-2.2 4.3-1.4 8.6-3 12.9-4.6 17.6-6.6 35.3-15.3 53.3-20.5 4.4-1.3 7.3 9.2 4.9 11.8-7.1 7.5-21.3 10.3-30.1 15.9-5.3 3.3-11.2 10.1-17.1 11.8-2.3.7-4.5-1.3-6.4-2.2zm12.3 7c-1.3-.7-3.6-1.8-2.5-3.6 1.7-2.8 6.2-4.7 8.8-6.6 7.5-5.7 16.2-9.8 24.8-13.6 3.2-1.5 6.9-4.4 10.5-4.7 2.9-.2 6.1 6.3 4.4 8.6-1.8 2.4-5.5 3.9-7.8 5.8-5.6 4.3-10.9 9-16.4 13.4-2.4 1.9-5.5 6.2-8.8 6.5-3.7.4-9.8-4.1-13-5.8zm28.1 15.7c-2.5.6-13.5-5.3-11.9-8.1 1.7-3.1 5.7-5.5 8.4-7.6 6.4-5 14.3-14.2 22.2-16.6 2.8-.9 7 5.1 5.9 7.5-.9 2.3-4.4 4.2-6.2 5.8-4.4 4.1-8.5 8.6-12.6 13-1.5 1.8-3.2 5.4-5.8 6zm17.4 10.2c-2.3.3-13.4-5.5-14-7.8-.5-2 2.4-4.7 3.6-6.1 1-1.2 2.3-3.7 4-4.1 1.4-.3 1.6 2.6 1.9 3.5 1.4 3.8 3.3 7.4 4.9 11.1.4 1 1.3 3.2-.4 3.4zm81.5 35.2c-25.3-2.4-50.6-10.4-69.7-27.2-6-5.3-8.4-10.1-11.8-17.1-.9-1.8-3.2-5.3-2.4-7.4.8-2.2 3.8-.2 5 .4 4.1 2.6 7.3 6.1 11 9.1 17.5 13.9 39.8 20.1 62 18 23.6-2.2 43.8-15.3 60-31.7 3.2-3.3 4.9-8.2 7.9-11.6 2.7-2.9 7.4-.7 9.7-5.5 2.2-4.7-3.4-8.6-2-13.5 1.4-5.1 7.6-5.3 8.4-10.5.7-4.4-4-6.8-4.1-11.1-.1-2.2-.2-5 .7-7 1.1-2.3 4.1-4.8 3.9-7.6-.3-2.7-3.2-4-3.8-6.4-1.9-7.5-2.4-15.4-5.5-22.8-6.6-15.5-21.4-29-35.4-37.8-22.7-14.2-47.7-24.9-74.9-19-8.3 1.8-16.3 3-24 6.9-1 .5-6.5 4.3-7.4 3.1-.6-1.1 1.6-3.4 2.1-4.1 2.9-4.3 6.4-7.6 10.6-10.9 16.4-12.6 32.7-18.5 53.3-20.4 5.1-.5 10.3 1 15.2 1.8 8.4 1.4 16.8 2.2 24.6 5.8 7.4 3.4 14.6 9.3 21.1 14.2 22.1 16.7 39.2 35.7 47 62.8 2.7 9.2 3.1 18.7 3.7 28.1 1 16.2 1.6 33.5-3.5 49.2-13.3 39.6-58.2 76.4-101.7 72.2z" class="st0"/>
  <path d="M229 310.1c-2.2 1.3-.2 4.2 1.8 2.8 1.9-1.3.1-3.9-1.8-2.8z" class="st0"/>
  <path d="M248.7 252.4c-37.2 6.8-53.1 54.9-21.7 78.4 4.3 3.3 10.5 5.4 15.8 6.5 6.6 1.3 13.3 1.5 19.9.1 11.7-2.2 20.3-11 26.9-20.3 2.3-3.3 5.5-7.6 6.1-11.7 3.9-25.8-18.3-58.2-47-53zM232.3 318c-7.2 3-11.8-10-4.7-12.8 7.6-2.9 12.1 9.8 4.7 12.8zm13.5 3.4c-5.7 1.9-7.1-6-1.5-7.8 4.3-1.4 5.5 6.4 1.5 7.8z" class="st0"/>
</svg>
